<svg id="Capa_1" enable-background="new 0 0 512 512" height="512" viewBox="0 0 512 512" width="512" xmlns="http://www.w3.org/2000/svg"><g><g><path d="m339.086 8.147c-66.651-2.464-76.708 26.781-108.975 34.989-14.9 3.79-29.495.597-42.088-5.059-13.489-6.058-26.744 8.766-19.079 21.41 8.919 14.713 21.61 29.877 39.453 41.091v-.001c19.144 12.032 44.219 19.516 76.93 17.017l22.411 36.679c6.164-9.754 17.399-15.985 30.007-14.966 15.541 1.257 28.142 13.772 29.491 29.306 1.577 18.16-11.885 33.527-29.316 35.059l38.516 63.039s74.933-48.479 82.187-115.994c7.552-70.301-38.501-139.574-119.537-142.57z" fill="#565e75"/><path d="m275.931 290.687v39.107c28.329-27.525 61.347-40.147 90.307-30.805 3.58 1.155 6.974 2.764 10.197 4.767v-37.044l-38.516-63.039c16.499-1.449 29.442-15.294 29.442-32.17 0-17.84-14.463-32.303-32.303-32.303-11.505 0-21.597 6.019-27.32 15.075l-22.411-36.679c-32.71 2.499-57.785-4.985-76.93-17.017v115.231c0 38.958 29.598 71.003 67.534 74.877z" fill="#fdd4bb"/><g><path d="m275.931 311.794v18c28.329-27.525 61.347-40.147 90.307-30.805 3.58 1.155 6.974 2.764 10.197 4.767v-18c-3.223-2.003-6.618-3.612-10.197-4.767-28.96-9.342-61.978 3.28-90.307 30.805z" fill="#f7c4a8"/></g><path d="m436.215 504s-2.187-183.143-69.977-205.011-157.841 76.538-157.841 205.011z" fill="#ffa6d5"/><path d="m208.99 486c-.39 5.927-.593 11.929-.593 18h227.818s-.082-6.829-.701-18z" fill="#ff90d1"/><path d="m280.954 457.492h93.309v46.508h-93.309z" fill="#fdd4bb"/><path d="m280.954 486h93.309v18h-93.309z" fill="#f7c4a8"/><path d="m162.178 126.112c0-5.521-4.476-9.997-9.997-9.997h-76.354c-14.913 0-27.561 10.958-29.685 25.719l-21.648 150.433c-.867 6.026 3.807 11.421 9.895 11.421h38.67c4.971 0 9.187-3.653 9.895-8.573l10.167-70.653c2.765-19.215 19.228-33.479 38.641-33.479h20.418c5.521 0 9.997-4.476 9.997-9.997v-54.874z" fill="#f4594e"/><g fill="#e84642"><path d="m75.681 285.688h-38.602c-6.088 0-10.762-5.395-9.895-11.421l-2.69 18c-.867 6.026 3.807 11.421 9.895 11.421h38.67c4.971 0 9.187-3.653 9.895-8.573l2.494-17.33c-.978 4.577-5.025 7.903-9.767 7.903z"/><path d="m152.18 172.983h-20.418c-19.413 0-33.254 14.264-36.019 33.479l-2.397 16.657c3.323-18.531 19.46-32.135 38.416-32.135h20.418c5.521 0 9.997-4.476 9.997-9.997v-18c.001 5.521-4.475 9.996-9.997 9.996z"/></g><path d="m152.18 116.115h-20.418v74.868h20.418c5.521 0 9.997-4.476 9.997-9.997v-54.875c.001-5.52-4.475-9.996-9.997-9.996z" fill="#ffde91"/><path d="m152.18 172.983h-20.418v18h20.418c5.521 0 9.997-4.476 9.997-9.997v-18c.001 5.522-4.475 9.997-9.997 9.997z" fill="#ffce6e"/><path d="m75.827 116.115c-14.913 0-27.561 10.958-29.685 25.719l-8.886 61.751c19.815 0 36.7-14.385 39.847-33.949l8.61-53.522h-9.886z" fill="#ffde91"/><path d="m39.859 185.494-2.603 18.091c19.815 0 36.7-14.385 39.847-33.949l1.576-9.799c-6.429 14.471-22.713 24.652-38.82 25.657z" fill="#ffce6e"/></g><g><g><g><g><g><path d="m466.488 151.315c3.743-34.844-4.826-69.192-24.129-96.715-2.383-3.398-7.068-4.218-10.467-1.838-3.398 2.384-4.22 7.069-1.837 10.468 17.212 24.542 24.844 55.255 21.49 86.479-5.587 52.005-54.93 93.057-72.657 106.242l-29.032-47.517c15.975-6.32 26.647-22.629 25.082-40.64-1.658-19.094-17.319-34.658-36.429-36.203-10.99-.888-21.615 2.745-29.622 9.79l-17.091-27.973c-1.472-2.409-4.172-3.789-6.985-3.575-27.91 2.131-52.307-3.224-72.509-15.92-14.622-9.19-27.105-22.212-37.102-38.705-2.656-4.382-.086-7.863.765-8.826.868-.982 4.073-4.018 8.845-1.875 16.485 7.404 32.333 9.253 47.102 5.497 12.203-3.105 21.594-8.972 30.676-14.647 17.091-10.68 34.761-21.726 76.381-20.183 27.713 1.024 52.692 10.438 72.239 27.223 3.149 2.704 7.892 2.343 10.597-.805 2.704-3.149 2.344-7.893-.805-10.597-22.154-19.025-50.328-29.689-81.476-30.841-46.217-1.705-66.771 11.13-84.899 22.457-8.846 5.527-16.486 10.3-26.418 12.827-11.397 2.899-23.925 1.338-37.239-4.641-9.254-4.155-19.563-1.946-26.263 5.631-6.655 7.527-7.58 17.957-2.358 26.572 10.42 17.19 23.341 31.072 38.441 41.332v111.401c0 40.403 28.643 74.331 67.665 81.533v29.523c-20.503 20.646-37.818 48.127-49.717 79.285-1.481 3.877.462 8.22 4.339 9.701 3.875 1.481 8.22-.462 9.701-4.339 28.14-73.682 85.845-119.892 131.369-105.21 24.957 8.051 44.119 44.346 55.413 104.963 6.704 35.978 8.697 70.842 9.271 85.782h-46.822v-96.721c0-4.15-3.365-7.515-7.515-7.515s-7.515 3.365-7.515 7.515v50.122h-78.462v-50.122c0-4.15-3.365-7.515-7.515-7.515s-7.515 3.365-7.515 7.515v96.721h-57.563c.55-19.552 3.244-38.924 8.03-57.692 1.025-4.021-1.404-8.113-5.425-9.138-4.023-1.025-8.113 1.403-9.138 5.425-5.707 22.382-8.601 45.57-8.601 68.92 0 4.15 3.365 7.515 7.515 7.515h228.263c4.07.081 7.644-3.535 7.514-7.604-.022-1.9-.659-47.082-9.712-95.773-10.347-55.652-27.194-92.096-50.185-108.762v-29.149c15.331-10.746 75.567-56.688 82.305-119.398zm-177.972 345.654v-31.569h78.462v31.569zm80.244-205.047c-26.412-8.521-56.528-1.043-84.806 21.05-.158.123-.313.252-.47.375v-22.592c0-3.855-2.916-7.084-6.751-7.476-32.458-3.314-57.45-28.902-60.577-60.779 6.241-.047 15.317 1.482 18.742 10.119 1.169 2.949 3.997 4.747 6.987 4.747.922 0 1.859-.171 2.768-.531 3.858-1.53 5.745-5.897 4.215-9.755-6.186-15.6-21.362-19.659-33.049-19.611v-94.492c19.254 9.263 41.209 13.347 65.515 12.134l20.092 32.883c1.354 2.217 3.758 3.577 6.356 3.597h.057c2.576 0 4.974-1.32 6.352-3.5 4.965-7.857 13.817-12.271 23.107-11.52 11.891.962 21.636 10.645 22.668 22.523 1.188 13.686-8.925 25.794-22.544 26.991-2.591.227-4.88 1.778-6.051 4.1-1.172 2.321-1.06 5.084.297 7.303l37.488 61.358v23.215c-.134-.043-.264-.097-.396-.139z"/><path d="m267.175 171.023c-.099-.011-9.982-1.239-19.185-7.782-3.383-2.404-8.074-1.613-10.479 1.77s-1.613 8.074 1.77 10.479c12.51 8.895 25.685 10.411 26.24 10.472.275.03.548.045.819.045 3.772 0 7.007-2.837 7.441-6.672.464-4.112-2.498-7.828-6.606-8.312z"/></g></g></g></g><path d="m151.976 108.327h-76.502c-18.554 0-34.538 13.849-37.181 32.214l-21.69 150.727c-.725 5.036.77 10.131 4.102 13.976 3.332 3.846 8.161 6.052 13.25 6.052h38.746c8.659 0 16.119-6.463 17.352-15.034l3.631-25.228c.591-4.108-2.259-7.917-6.367-8.508-4.11-.589-7.917 2.26-8.508 6.367l-3.631 25.228c-.176 1.224-1.241 2.146-2.477 2.146h-38.746c-1.862-.279-2.465-.975-2.476-2.858l11.923-82.853c20.704-2.808 37.364-18.721 40.77-39.894l7.61-47.306h32.223v60.614c-19.706 3.26-35.723 19.088-38.64 39.359l-2.284 15.869c-.591 4.108 2.259 7.917 6.367 8.508 4.11.597 7.918-2.26 8.508-6.367l2.284-15.869c2.224-15.45 15.67-27.1 31.279-27.1h20.457c9.667 0 17.532-7.864 17.532-17.531v-54.982c0-9.665-7.865-17.53-17.532-17.53zm-82.643 59.947c-2.096 13.028-11.5 23.155-23.662 26.505l7.497-52.098c1.586-11.017 11.175-19.325 22.306-19.325h1.085zm85.146 12.566c0 1.38-1.123 2.502-2.502 2.502h-12.943v-59.985h12.943c1.38 0 2.502 1.122 2.502 2.502z"/><g><path d="m211.509 355.283c-4.15 0-7.515-3.364-7.515-7.515 0-5.694-1.41-7.418-3.969-10.549-2.513-3.074-5.954-7.285-7.367-14.901-2.809-15.139 8.791-25.84 9.286-26.288 3.078-2.785 7.83-2.548 10.614.529 2.771 3.063 2.55 7.784-.485 10.574-.202.194-5.885 5.725-4.638 12.444.71 3.828 2.109 5.54 4.227 8.131 3.279 4.013 7.361 9.006 7.361 20.061.001 4.15-3.364 7.514-7.514 7.514z"/><path d="m469.087 378.383c-4.15 0-7.515-3.365-7.515-7.515 0-13.015 6.176-20.693 11.138-26.862 3.848-4.784 6.887-8.562 7.653-14.484 1.317-10.178-5.002-16.086-5.066-16.142-3.109-2.75-3.399-7.499-.65-10.608 2.75-3.108 7.5-3.399 10.608-.65.506.448 12.363 11.17 10.013 29.328-1.309 10.117-6.377 16.417-10.847 21.975-4.369 5.431-7.819 9.722-7.819 17.442 0 4.151-3.365 7.516-7.515 7.516z"/><path d="m439.315 355.283c-4.15 0-7.515-3.364-7.515-7.515 0-11.055 4.082-16.048 7.361-20.061 2.117-2.591 3.517-4.303 4.227-8.131 1.253-6.757-4.535-12.35-4.594-12.404-3.077-2.785-3.314-7.537-.529-10.615s7.537-3.314 10.614-.529c.495.448 12.095 11.149 9.286 26.289-1.413 7.615-4.854 11.826-7.367 14.9-2.559 3.131-3.969 4.856-3.969 10.549.001 4.153-3.364 7.517-7.514 7.517z"/><path d="m181.736 378.383c4.15 0 7.515-3.365 7.515-7.515 0-13.015-6.176-20.693-11.138-26.862-3.848-4.784-6.887-8.562-7.653-14.484-1.317-10.178 5.002-16.086 5.066-16.142 3.109-2.75 3.399-7.499.65-10.608-2.75-3.108-7.5-3.399-10.608-.65-.506.448-12.363 11.17-10.013 29.328 1.309 10.117 6.377 16.417 10.847 21.975 4.369 5.431 7.819 9.722 7.819 17.442.001 4.151 3.365 7.516 7.515 7.516z"/></g></g></g></svg>