<svg width="180" height="35" viewBox="0 0 180 35" fill="none" xmlns="http://www.w3.org/2000/svg">
<path d="M28.7309 34.272C26.8723 34.272 25.2403 33.8073 23.8349 32.878C22.4523 31.9487 21.4663 30.668 20.8769 29.036C20.4463 27.948 20.2309 26.6447 20.2309 25.126C20.2309 23.6073 20.4463 22.304 20.8769 21.216C21.4436 19.6293 22.4296 18.394 23.8349 17.51C25.2403 16.6033 26.8723 16.15 28.7309 16.15C30.6123 16.15 32.2669 16.6147 33.6949 17.544C35.1229 18.4733 36.0863 19.652 36.5849 21.08C36.7436 21.488 36.8456 21.93 36.8909 22.406C36.8909 22.6553 36.7663 22.8027 36.5169 22.848L31.7909 23.562H31.7229C31.5189 23.562 31.3829 23.4487 31.3149 23.222L31.2469 22.916C31.2016 22.7347 31.1563 22.576 31.1109 22.44C30.9069 22.0093 30.5896 21.658 30.1589 21.386C29.7509 21.114 29.2636 20.978 28.6969 20.978C27.4956 20.978 26.7023 21.5107 26.3169 22.576C26.0676 23.2107 25.9429 24.072 25.9429 25.16C25.9429 26.1347 26.0563 26.9847 26.2829 27.71C26.7136 28.866 27.5183 29.444 28.6969 29.444C29.2863 29.444 29.7963 29.2967 30.2269 29.002C30.6576 28.6847 30.9636 28.2427 31.1449 27.676C31.1676 27.6307 31.1789 27.5627 31.1789 27.472C31.2016 27.4493 31.2129 27.404 31.2129 27.336C31.2809 27.064 31.4396 26.9507 31.6889 26.996L36.4489 27.744C36.6756 27.7893 36.7889 27.914 36.7889 28.118C36.7889 28.458 36.7209 28.832 36.5849 29.24C36.0409 30.8267 35.0549 32.062 33.6269 32.946C32.2216 33.83 30.5896 34.272 28.7309 34.272ZM46.9255 34.272C44.8855 34.272 43.1515 33.728 41.7235 32.64C40.2955 31.552 39.3435 30.0787 38.8675 28.22C38.5955 27.2907 38.4595 26.2707 38.4595 25.16C38.4595 23.9133 38.6068 22.814 38.9015 21.862C39.4228 20.0713 40.3861 18.6773 41.7915 17.68C43.2195 16.66 44.9421 16.15 46.9595 16.15C48.9541 16.15 50.6428 16.66 52.0255 17.68C53.4081 18.6773 54.3715 20.06 54.9155 21.828C55.2328 22.848 55.3915 23.936 55.3915 25.092C55.3915 26.1347 55.2668 27.132 55.0175 28.084C54.5415 29.988 53.5895 31.4953 52.1615 32.606C50.7335 33.7167 48.9881 34.272 46.9255 34.272ZM46.9255 29.444C47.5828 29.444 48.1268 29.24 48.5575 28.832C48.9881 28.4013 49.3055 27.8233 49.5095 27.098C49.6455 26.5087 49.7135 25.8627 49.7135 25.16C49.7135 24.48 49.6341 23.8227 49.4755 23.188C49.2941 22.4853 48.9881 21.9413 48.5575 21.556C48.1268 21.1707 47.5828 20.978 46.9255 20.978C45.6108 20.978 44.7495 21.7147 44.3415 23.188C44.2055 23.732 44.1375 24.3893 44.1375 25.16C44.1375 25.8627 44.2055 26.5087 44.3415 27.098C44.5228 27.8233 44.8288 28.4013 45.2595 28.832C45.7128 29.24 46.2681 29.444 46.9255 29.444ZM61.7619 34C61.5353 34 61.3879 33.8867 61.3199 33.66L55.9819 16.864C55.9593 16.8187 55.9479 16.762 55.9479 16.694C55.9479 16.49 56.0726 16.388 56.3219 16.388H61.6259C61.8753 16.388 62.0339 16.5013 62.1019 16.728L64.3459 26.078C64.3686 26.146 64.4026 26.18 64.4479 26.18C64.4933 26.18 64.5273 26.146 64.5499 26.078L66.8279 16.728C66.8959 16.5013 67.0546 16.388 67.3039 16.388L72.5739 16.456C72.7099 16.456 72.8119 16.5013 72.8799 16.592C72.9479 16.66 72.9593 16.7733 72.9139 16.932L67.6099 33.66C67.5419 33.8867 67.3946 34 67.1679 34H61.7619ZM77.9165 14.858C77.0551 14.858 76.3411 14.586 75.7745 14.042C75.2305 13.4753 74.9585 12.7613 74.9585 11.9C74.9585 11.016 75.2305 10.302 75.7745 9.758C76.3411 9.214 77.0551 8.942 77.9165 8.942C78.7778 8.942 79.4805 9.214 80.0245 9.758C80.5911 10.302 80.8745 11.016 80.8745 11.9C80.8745 12.7387 80.5911 13.4413 80.0245 14.008C79.4805 14.5747 78.7778 14.858 77.9165 14.858ZM75.4685 34C75.3551 34 75.2531 33.966 75.1625 33.898C75.0945 33.8073 75.0605 33.7053 75.0605 33.592V16.83C75.0605 16.7167 75.0945 16.626 75.1625 16.558C75.2531 16.4673 75.3551 16.422 75.4685 16.422H80.2965C80.4098 16.422 80.5005 16.4673 80.5685 16.558C80.6591 16.626 80.7045 16.7167 80.7045 16.83V33.592C80.7045 33.7053 80.6591 33.8073 80.5685 33.898C80.5005 33.966 80.4098 34 80.2965 34H75.4685ZM103.821 16.15C105.589 16.15 106.972 16.694 107.969 17.782C108.967 18.87 109.465 20.4 109.465 22.372V33.592C109.465 33.7053 109.42 33.8073 109.329 33.898C109.261 33.966 109.171 34 109.057 34H104.263C104.15 34 104.048 33.966 103.957 33.898C103.889 33.8073 103.855 33.7053 103.855 33.592V23.596C103.855 22.8253 103.651 22.202 103.243 21.726C102.858 21.2273 102.337 20.978 101.679 20.978C101.022 20.978 100.478 21.216 100.047 21.692C99.6393 22.168 99.4353 22.8027 99.4353 23.596V33.592C99.4353 33.7053 99.3899 33.8073 99.2993 33.898C99.2313 33.966 99.1406 34 99.0273 34H94.1993C94.0859 34 93.9839 33.966 93.8933 33.898C93.8253 33.8073 93.7913 33.7053 93.7913 33.592V23.596C93.7913 22.8253 93.5759 22.202 93.1453 21.726C92.7373 21.2273 92.2046 20.978 91.5473 20.978C90.9353 20.978 90.4253 21.1707 90.0173 21.556C89.6093 21.9413 89.3599 22.4513 89.2693 23.086V33.592C89.2693 33.7053 89.2239 33.8073 89.1333 33.898C89.0653 33.966 88.9746 34 88.8613 34H84.0333C83.9199 34 83.8179 33.966 83.7273 33.898C83.6593 33.8073 83.6253 33.7053 83.6253 33.592V16.83C83.6253 16.7167 83.6593 16.626 83.7273 16.558C83.8179 16.4673 83.9199 16.422 84.0333 16.422H88.8613C88.9746 16.422 89.0653 16.4673 89.1333 16.558C89.2239 16.626 89.2693 16.7167 89.2693 16.83V18.36C89.2693 18.4507 89.2919 18.5073 89.3373 18.53C89.3826 18.53 89.4279 18.4847 89.4733 18.394C90.3573 16.898 91.8079 16.15 93.8253 16.15C94.9586 16.15 95.9559 16.3993 96.8173 16.898C97.6786 17.3967 98.3359 18.122 98.7893 19.074C98.8573 19.21 98.9253 19.1987 98.9933 19.04C99.4693 18.0653 100.115 17.34 100.931 16.864C101.77 16.388 102.733 16.15 103.821 16.15ZM128.433 23.664C128.546 24.344 128.58 25.2393 128.535 26.35C128.512 26.622 128.365 26.758 128.093 26.758H117.723C117.677 26.758 117.632 26.7807 117.587 26.826C117.541 26.8487 117.53 26.8827 117.553 26.928C117.598 27.1773 117.711 27.506 117.893 27.914C118.165 28.39 118.573 28.7753 119.117 29.07C119.661 29.3647 120.329 29.512 121.123 29.512C122.551 29.512 123.673 29.0473 124.489 28.118C124.579 28.0047 124.681 27.948 124.795 27.948C124.908 27.948 124.999 27.9933 125.067 28.084L127.685 31.076C127.775 31.144 127.821 31.2347 127.821 31.348C127.821 31.4387 127.775 31.5293 127.685 31.62C126.891 32.4813 125.905 33.1387 124.727 33.592C123.571 34.0453 122.301 34.272 120.919 34.272C118.856 34.272 117.099 33.83 115.649 32.946C114.221 32.0393 113.189 30.7813 112.555 29.172C112.079 28.0387 111.841 26.622 111.841 24.922C111.841 23.7433 112.022 22.61 112.385 21.522C112.974 19.8447 113.937 18.53 115.275 17.578C116.635 16.6033 118.244 16.116 120.103 16.116C121.599 16.116 122.936 16.4447 124.115 17.102C125.293 17.7367 126.245 18.632 126.971 19.788C127.719 20.9213 128.206 22.2133 128.433 23.664ZM120.103 20.978C118.924 20.978 118.142 21.5333 117.757 22.644C117.666 22.8933 117.609 23.1313 117.587 23.358C117.541 23.4713 117.587 23.528 117.723 23.528H122.551C122.641 23.528 122.687 23.4827 122.687 23.392C122.687 23.2107 122.641 22.984 122.551 22.712C122.392 22.1453 122.097 21.7147 121.667 21.42C121.259 21.1253 120.737 20.978 120.103 20.978ZM147.126 23.664C147.239 24.344 147.273 25.2393 147.228 26.35C147.205 26.622 147.058 26.758 146.786 26.758H136.416C136.371 26.758 136.325 26.7807 136.28 26.826C136.235 26.8487 136.223 26.8827 136.246 26.928C136.291 27.1773 136.405 27.506 136.586 27.914C136.858 28.39 137.266 28.7753 137.81 29.07C138.354 29.3647 139.023 29.512 139.816 29.512C141.244 29.512 142.366 29.0473 143.182 28.118C143.273 28.0047 143.375 27.948 143.488 27.948C143.601 27.948 143.692 27.9933 143.76 28.084L146.378 31.076C146.469 31.144 146.514 31.2347 146.514 31.348C146.514 31.4387 146.469 31.5293 146.378 31.62C145.585 32.4813 144.599 33.1387 143.42 33.592C142.264 34.0453 140.995 34.272 139.612 34.272C137.549 34.272 135.793 33.83 134.342 32.946C132.914 32.0393 131.883 30.7813 131.248 29.172C130.772 28.0387 130.534 26.622 130.534 24.922C130.534 23.7433 130.715 22.61 131.078 21.522C131.667 19.8447 132.631 18.53 133.968 17.578C135.328 16.6033 136.937 16.116 138.796 16.116C140.292 16.116 141.629 16.4447 142.808 17.102C143.987 17.7367 144.939 18.632 145.664 19.788C146.412 20.9213 146.899 22.2133 147.126 23.664ZM138.796 20.978C137.617 20.978 136.835 21.5333 136.45 22.644C136.359 22.8933 136.303 23.1313 136.28 23.358C136.235 23.4713 136.28 23.528 136.416 23.528H141.244C141.335 23.528 141.38 23.4827 141.38 23.392C141.38 23.2107 141.335 22.984 141.244 22.712C141.085 22.1453 140.791 21.7147 140.36 21.42C139.952 21.1253 139.431 20.978 138.796 20.978ZM159.948 20.536C159.948 20.6493 159.902 20.7513 159.812 20.842C159.744 20.91 159.653 20.944 159.54 20.944H156.446C156.332 20.944 156.276 21.0007 156.276 21.114V27.302C156.276 28.594 156.797 29.24 157.84 29.24H159.098C159.211 29.24 159.302 29.2853 159.37 29.376C159.46 29.444 159.506 29.5347 159.506 29.648V33.592C159.506 33.8413 159.37 33.9887 159.098 34.034C158.01 34.0793 157.216 34.102 156.718 34.102C154.746 34.102 153.284 33.796 152.332 33.184C151.38 32.5493 150.892 31.3593 150.87 29.614V21.114C150.87 21.0007 150.813 20.944 150.7 20.944H148.762C148.648 20.944 148.546 20.91 148.456 20.842C148.388 20.7513 148.354 20.6493 148.354 20.536V16.83C148.354 16.7167 148.388 16.626 148.456 16.558C148.546 16.4673 148.648 16.422 148.762 16.422H150.7C150.813 16.422 150.87 16.3653 150.87 16.252V12.138C150.87 12.0247 150.904 11.934 150.972 11.866C151.062 11.7753 151.164 11.73 151.278 11.73H155.868C155.981 11.73 156.072 11.7753 156.14 11.866C156.23 11.934 156.276 12.0247 156.276 12.138V16.252C156.276 16.3653 156.332 16.422 156.446 16.422H159.54C159.653 16.422 159.744 16.4673 159.812 16.558C159.902 16.626 159.948 16.7167 159.948 16.83V20.536Z" fill="black"/>
<circle cx="78" cy="11" r="4" fill="#3D9C47"/>
<circle cx="163.5" cy="31.5" r="2.5" fill="#3B60FF"/>
</svg>
