<svg width="123" height="128" viewBox="0 0 123 128" fill="none" xmlns="http://www.w3.org/2000/svg">
<g opacity="0.3">
<g opacity="0.3">
<path d="M3.61765 7.52941C5.61562 7.52941 7.23529 5.8439 7.23529 3.76471C7.23529 1.68552 5.61562 0 3.61765 0C1.61968 0 0 1.68552 0 3.76471C0 5.8439 1.61968 7.52941 3.61765 7.52941Z" fill="#020000" style="mix-blend-mode:darken"/>
</g>
<g opacity="0.3">
<path d="M32.5588 7.52941C34.5568 7.52941 36.1765 5.8439 36.1765 3.76471C36.1765 1.68552 34.5568 0 32.5588 0C30.5608 0 28.9412 1.68552 28.9412 3.76471C28.9412 5.8439 30.5608 7.52941 32.5588 7.52941Z" fill="#020000" style="mix-blend-mode:darken"/>
</g>
<g opacity="0.3">
<path d="M61.5 7.52941C63.4979 7.52941 65.1176 5.8439 65.1176 3.76471C65.1176 1.68552 63.4979 0 61.5 0C59.502 0 57.8823 1.68552 57.8823 3.76471C57.8823 5.8439 59.502 7.52941 61.5 7.52941Z" fill="#020000" style="mix-blend-mode:darken"/>
</g>
<g opacity="0.3">
<path d="M90.4411 7.52941C92.4391 7.52941 94.0588 5.8439 94.0588 3.76471C94.0588 1.68552 92.4391 0 90.4411 0C88.4432 0 86.8235 1.68552 86.8235 3.76471C86.8235 5.8439 88.4432 7.52941 90.4411 7.52941Z" fill="#020000" style="mix-blend-mode:darken"/>
</g>
<g opacity="0.3">
<path d="M119.382 7.52941C121.38 7.52941 123 5.8439 123 3.76471C123 1.68552 121.38 0 119.382 0C117.384 0 115.765 1.68552 115.765 3.76471C115.765 5.8439 117.384 7.52941 119.382 7.52941Z" fill="#020000" style="mix-blend-mode:darken"/>
</g>
<g opacity="0.3">
<path d="M3.61765 37.6471C5.61562 37.6471 7.23529 35.9615 7.23529 33.8824C7.23529 31.8032 5.61562 30.1176 3.61765 30.1176C1.61968 30.1176 0 31.8032 0 33.8824C0 35.9615 1.61968 37.6471 3.61765 37.6471Z" fill="#020000" style="mix-blend-mode:darken"/>
</g>
<g opacity="0.3">
<path d="M32.5588 37.6471C34.5568 37.6471 36.1765 35.9615 36.1765 33.8824C36.1765 31.8032 34.5568 30.1176 32.5588 30.1176C30.5608 30.1176 28.9412 31.8032 28.9412 33.8824C28.9412 35.9615 30.5608 37.6471 32.5588 37.6471Z" fill="#020000" style="mix-blend-mode:darken"/>
</g>
<g opacity="0.3">
<path d="M61.5 37.6471C63.4979 37.6471 65.1176 35.9615 65.1176 33.8824C65.1176 31.8032 63.4979 30.1176 61.5 30.1176C59.502 30.1176 57.8823 31.8032 57.8823 33.8824C57.8823 35.9615 59.502 37.6471 61.5 37.6471Z" fill="#020000" style="mix-blend-mode:darken"/>
</g>
<g opacity="0.3">
<path d="M90.4411 37.6471C92.4391 37.6471 94.0588 35.9615 94.0588 33.8824C94.0588 31.8032 92.4391 30.1176 90.4411 30.1176C88.4432 30.1176 86.8235 31.8032 86.8235 33.8824C86.8235 35.9615 88.4432 37.6471 90.4411 37.6471Z" fill="#020000" style="mix-blend-mode:darken"/>
</g>
<g opacity="0.3">
<path d="M119.382 37.6471C121.38 37.6471 123 35.9615 123 33.8824C123 31.8032 121.38 30.1176 119.382 30.1176C117.384 30.1176 115.765 31.8032 115.765 33.8824C115.765 35.9615 117.384 37.6471 119.382 37.6471Z" fill="#020000" style="mix-blend-mode:darken"/>
</g>
<g opacity="0.3">
<path d="M3.61765 67.7647C5.61562 67.7647 7.23529 66.0792 7.23529 64C7.23529 61.9208 5.61562 60.2353 3.61765 60.2353C1.61968 60.2353 0 61.9208 0 64C0 66.0792 1.61968 67.7647 3.61765 67.7647Z" fill="#020000" style="mix-blend-mode:darken"/>
</g>
<g opacity="0.3">
<path d="M32.5588 67.7647C34.5568 67.7647 36.1765 66.0792 36.1765 64C36.1765 61.9208 34.5568 60.2353 32.5588 60.2353C30.5608 60.2353 28.9412 61.9208 28.9412 64C28.9412 66.0792 30.5608 67.7647 32.5588 67.7647Z" fill="#020000" style="mix-blend-mode:darken"/>
</g>
<g opacity="0.3">
<path d="M61.5 67.7647C63.4979 67.7647 65.1176 66.0792 65.1176 64C65.1176 61.9208 63.4979 60.2353 61.5 60.2353C59.502 60.2353 57.8823 61.9208 57.8823 64C57.8823 66.0792 59.502 67.7647 61.5 67.7647Z" fill="#020000" style="mix-blend-mode:darken"/>
</g>
<g opacity="0.3">
<path d="M90.4411 67.7647C92.4391 67.7647 94.0588 66.0792 94.0588 64C94.0588 61.9208 92.4391 60.2353 90.4411 60.2353C88.4432 60.2353 86.8235 61.9208 86.8235 64C86.8235 66.0792 88.4432 67.7647 90.4411 67.7647Z" fill="#020000" style="mix-blend-mode:darken"/>
</g>
<g opacity="0.3">
<path d="M119.382 67.7647C121.38 67.7647 123 66.0792 123 64C123 61.9208 121.38 60.2353 119.382 60.2353C117.384 60.2353 115.765 61.9208 115.765 64C115.765 66.0792 117.384 67.7647 119.382 67.7647Z" fill="#020000" style="mix-blend-mode:darken"/>
</g>
<g opacity="0.3">
<path d="M3.61765 97.8823C5.61562 97.8823 7.23529 96.1968 7.23529 94.1176C7.23529 92.0385 5.61562 90.3529 3.61765 90.3529C1.61968 90.3529 0 92.0385 0 94.1176C0 96.1968 1.61968 97.8823 3.61765 97.8823Z" fill="#020000" style="mix-blend-mode:darken"/>
</g>
<g opacity="0.3">
<path d="M32.5588 97.8823C34.5568 97.8823 36.1765 96.1968 36.1765 94.1176C36.1765 92.0385 34.5568 90.3529 32.5588 90.3529C30.5608 90.3529 28.9412 92.0385 28.9412 94.1176C28.9412 96.1968 30.5608 97.8823 32.5588 97.8823Z" fill="#020000" style="mix-blend-mode:darken"/>
</g>
<g opacity="0.3">
<path d="M61.5 97.8823C63.4979 97.8823 65.1176 96.1968 65.1176 94.1176C65.1176 92.0385 63.4979 90.3529 61.5 90.3529C59.502 90.3529 57.8823 92.0385 57.8823 94.1176C57.8823 96.1968 59.502 97.8823 61.5 97.8823Z" fill="#020000" style="mix-blend-mode:darken"/>
</g>
<g opacity="0.3">
<path d="M90.4411 97.8823C92.4391 97.8823 94.0588 96.1968 94.0588 94.1176C94.0588 92.0385 92.4391 90.3529 90.4411 90.3529C88.4432 90.3529 86.8235 92.0385 86.8235 94.1176C86.8235 96.1968 88.4432 97.8823 90.4411 97.8823Z" fill="#020000" style="mix-blend-mode:darken"/>
</g>
<g opacity="0.3">
<path d="M119.382 97.8823C121.38 97.8823 123 96.1968 123 94.1176C123 92.0385 121.38 90.3529 119.382 90.3529C117.384 90.3529 115.765 92.0385 115.765 94.1176C115.765 96.1968 117.384 97.8823 119.382 97.8823Z" fill="#020000" style="mix-blend-mode:darken"/>
</g>
<g opacity="0.3">
<path d="M3.61765 128C5.61562 128 7.23529 126.314 7.23529 124.235C7.23529 122.156 5.61562 120.471 3.61765 120.471C1.61968 120.471 0 122.156 0 124.235C0 126.314 1.61968 128 3.61765 128Z" fill="#020000" style="mix-blend-mode:darken"/>
</g>
<g opacity="0.3">
<path d="M32.5588 128C34.5568 128 36.1765 126.314 36.1765 124.235C36.1765 122.156 34.5568 120.471 32.5588 120.471C30.5608 120.471 28.9412 122.156 28.9412 124.235C28.9412 126.314 30.5608 128 32.5588 128Z" fill="#020000" style="mix-blend-mode:darken"/>
</g>
<g opacity="0.3">
<path d="M61.5 128C63.4979 128 65.1176 126.314 65.1176 124.235C65.1176 122.156 63.4979 120.471 61.5 120.471C59.502 120.471 57.8823 122.156 57.8823 124.235C57.8823 126.314 59.502 128 61.5 128Z" fill="#020000" style="mix-blend-mode:darken"/>
</g>
<g opacity="0.3">
<path d="M90.4411 128C92.4391 128 94.0588 126.314 94.0588 124.235C94.0588 122.156 92.4391 120.471 90.4411 120.471C88.4432 120.471 86.8235 122.156 86.8235 124.235C86.8235 126.314 88.4432 128 90.4411 128Z" fill="#020000" style="mix-blend-mode:darken"/>
</g>
<g opacity="0.3">
<path d="M119.382 128C121.38 128 123 126.314 123 124.235C123 122.156 121.38 120.471 119.382 120.471C117.384 120.471 115.765 122.156 115.765 124.235C115.765 126.314 117.384 128 119.382 128Z" fill="#020000" style="mix-blend-mode:darken"/>
</g>
</g>
</svg>
