<svg width="459" height="28" viewBox="0 0 459 28" fill="none" xmlns="http://www.w3.org/2000/svg">
<path d="M15.9784 19.888C15.9784 21.9147 15.2424 23.4933 13.7704 24.624C12.2984 25.7547 10.3144 26.32 7.81837 26.32C6.53837 26.32 5.35437 26.224 4.26637 26.032C3.17837 25.84 2.2717 25.5733 1.54637 25.232V22.48C2.31437 22.8213 3.2637 23.1307 4.39437 23.408C5.54637 23.6853 6.73037 23.824 7.94637 23.824C9.65304 23.824 10.933 23.4933 11.7864 22.832C12.661 22.1707 13.0984 21.2747 13.0984 20.144C13.0984 19.3973 12.9384 18.768 12.6184 18.256C12.2984 17.744 11.7437 17.2747 10.9544 16.848C10.1864 16.4 9.10903 15.9307 7.72237 15.44C5.78103 14.736 4.30903 13.872 3.30637 12.848C2.32503 11.824 1.83437 10.4267 1.83437 8.656C1.83437 7.44 2.1437 6.40533 2.76237 5.552C3.38103 4.67733 4.23437 4.00533 5.32237 3.536C6.4317 3.06667 7.70103 2.832 9.13037 2.832C10.389 2.832 11.541 2.94933 12.5864 3.184C13.6317 3.41867 14.581 3.728 15.4344 4.112L14.5384 6.576C13.749 6.23467 12.885 5.94667 11.9464 5.712C11.029 5.47733 10.069 5.36 9.06637 5.36C7.63703 5.36 6.5597 5.66933 5.83437 6.288C5.10903 6.88533 4.74637 7.68533 4.74637 8.688C4.74637 9.456 4.90637 10.096 5.22637 10.608C5.54637 11.12 6.06903 11.5787 6.79437 11.984C7.5197 12.3893 8.50103 12.8267 9.73837 13.296C11.0824 13.7867 12.213 14.32 13.1304 14.896C14.069 15.4507 14.773 16.1227 15.2424 16.912C15.733 17.7013 15.9784 18.6933 15.9784 19.888ZM23.6529 8.816C23.6529 9.66933 23.5995 10.4693 23.4929 11.216H23.6849C24.2395 10.3413 24.9862 9.68 25.9249 9.232C26.8849 8.784 27.9195 8.56 29.0289 8.56C31.1195 8.56 32.6875 9.06133 33.7329 10.064C34.7782 11.0453 35.3009 12.6347 35.3009 14.832V26H32.5169V15.024C32.5169 12.272 31.2369 10.896 28.6769 10.896C26.7569 10.896 25.4342 11.44 24.7089 12.528C24.0049 13.5947 23.6529 15.1307 23.6529 17.136V26H20.8369V1.68H23.6529V8.816ZM47.7541 8.56C49.8448 8.56 51.3915 9.01867 52.3941 9.936C53.3968 10.8533 53.8981 12.3147 53.8981 14.32V26H51.8501L51.3061 23.568H51.1781C50.4315 24.5067 49.6421 25.2 48.8101 25.648C47.9995 26.096 46.8688 26.32 45.4181 26.32C43.8608 26.32 42.5701 25.9147 41.5461 25.104C40.5221 24.272 40.0101 22.9813 40.0101 21.232C40.0101 19.5253 40.6821 18.2133 42.0261 17.296C43.3701 16.3573 45.4394 15.8453 48.2341 15.76L51.1461 15.664V14.64C51.1461 13.2107 50.8368 12.2187 50.2181 11.664C49.5995 11.1093 48.7248 10.832 47.5941 10.832C46.6981 10.832 45.8448 10.9707 45.0341 11.248C44.2235 11.504 43.4661 11.8027 42.7621 12.144L41.8981 10.032C42.6448 9.62667 43.5301 9.28533 44.5541 9.008C45.5781 8.70933 46.6448 8.56 47.7541 8.56ZM48.5861 17.712C46.4528 17.7973 44.9701 18.1387 44.1381 18.736C43.3275 19.3333 42.9221 20.176 42.9221 21.264C42.9221 22.224 43.2101 22.928 43.7861 23.376C44.3834 23.824 45.1408 24.048 46.0581 24.048C47.5088 24.048 48.7141 23.6533 49.6741 22.864C50.6341 22.0533 51.1141 20.816 51.1141 19.152V17.616L48.5861 17.712ZM67.8356 8.528C68.1556 8.528 68.4969 8.54933 68.8596 8.592C69.2436 8.61333 69.5743 8.656 69.8516 8.72L69.4996 11.312C69.2223 11.248 68.9129 11.1947 68.5716 11.152C68.2516 11.1093 67.9423 11.088 67.6436 11.088C66.7689 11.088 65.9476 11.3333 65.1796 11.824C64.4116 12.2933 63.7929 12.9653 63.3236 13.84C62.8756 14.6933 62.6516 15.696 62.6516 16.848V26H59.8356V8.848H62.1396L62.4596 11.984H62.5876C63.1423 11.0453 63.8569 10.2347 64.7316 9.552C65.6063 8.86933 66.6409 8.528 67.8356 8.528ZM79.6934 8.528C81.1654 8.528 82.424 8.848 83.4694 9.488C84.536 10.128 85.3467 11.0347 85.9014 12.208C86.4774 13.36 86.7654 14.7147 86.7654 16.272V17.968H75.0214C75.064 19.9093 75.5547 21.392 76.4934 22.416C77.4534 23.4187 78.7867 23.92 80.4934 23.92C81.5814 23.92 82.5414 23.824 83.3734 23.632C84.2267 23.4187 85.1014 23.12 85.9974 22.736V25.2C85.1227 25.584 84.2587 25.8613 83.4054 26.032C82.552 26.224 81.5387 26.32 80.3654 26.32C78.744 26.32 77.304 25.9893 76.0454 25.328C74.808 24.6667 73.8374 23.6853 73.1334 22.384C72.4507 21.0613 72.1094 19.4507 72.1094 17.552C72.1094 15.6747 72.4187 14.064 73.0374 12.72C73.6774 11.376 74.5627 10.3413 75.6934 9.616C76.8454 8.89067 78.1787 8.528 79.6934 8.528ZM79.6614 10.832C78.3174 10.832 77.2507 11.2693 76.4614 12.144C75.6934 12.9973 75.2347 14.192 75.0854 15.728H83.8214C83.8 14.2773 83.4587 13.104 82.7974 12.208C82.136 11.2907 81.0907 10.832 79.6614 10.832ZM107.814 8.56C109.905 8.56 111.451 9.01867 112.454 9.936C113.457 10.8533 113.958 12.3147 113.958 14.32V26H111.91L111.366 23.568H111.238C110.491 24.5067 109.702 25.2 108.87 25.648C108.059 26.096 106.929 26.32 105.478 26.32C103.921 26.32 102.63 25.9147 101.606 25.104C100.582 24.272 100.07 22.9813 100.07 21.232C100.07 19.5253 100.742 18.2133 102.086 17.296C103.43 16.3573 105.499 15.8453 108.294 15.76L111.206 15.664V14.64C111.206 13.2107 110.897 12.2187 110.278 11.664C109.659 11.1093 108.785 10.832 107.654 10.832C106.758 10.832 105.905 10.9707 105.094 11.248C104.283 11.504 103.526 11.8027 102.822 12.144L101.958 10.032C102.705 9.62667 103.59 9.28533 104.614 9.008C105.638 8.70933 106.705 8.56 107.814 8.56ZM108.646 17.712C106.513 17.7973 105.03 18.1387 104.198 18.736C103.387 19.3333 102.982 20.176 102.982 21.264C102.982 22.224 103.27 22.928 103.846 23.376C104.443 23.824 105.201 24.048 106.118 24.048C107.569 24.048 108.774 23.6533 109.734 22.864C110.694 22.0533 111.174 20.816 111.174 19.152V17.616L108.646 17.712ZM128.152 8.528C130.2 8.528 131.746 9.02933 132.792 10.032C133.837 11.0133 134.36 12.6133 134.36 14.832V26H131.576V15.024C131.576 12.272 130.296 10.896 127.736 10.896C125.837 10.896 124.525 11.4293 123.8 12.496C123.074 13.5627 122.712 15.0987 122.712 17.104V26H119.896V8.848H122.168L122.584 11.184H122.744C123.298 10.288 124.066 9.62667 125.048 9.2C126.029 8.752 127.064 8.528 128.152 8.528ZM146.397 26.32C144.264 26.32 142.557 25.584 141.277 24.112C139.997 22.6187 139.357 20.4 139.357 17.456C139.357 14.512 139.997 12.2933 141.277 10.8C142.578 9.28533 144.296 8.528 146.429 8.528C147.752 8.528 148.829 8.77333 149.661 9.264C150.514 9.75467 151.208 10.352 151.741 11.056H151.933C151.912 10.7787 151.869 10.3733 151.805 9.84C151.762 9.28533 151.741 8.848 151.741 8.528V1.68H154.557V26H152.285L151.869 23.696H151.741C151.229 24.4213 150.546 25.04 149.693 25.552C148.84 26.064 147.741 26.32 146.397 26.32ZM146.845 23.984C148.658 23.984 149.928 23.4933 150.653 22.512C151.4 21.5093 151.773 20.0053 151.773 18V17.488C151.773 15.3547 151.421 13.7227 150.717 12.592C150.013 11.44 148.712 10.864 146.813 10.864C145.298 10.864 144.157 11.472 143.389 12.688C142.642 13.8827 142.269 15.4933 142.269 17.52C142.269 19.568 142.642 21.1573 143.389 22.288C144.157 23.4187 145.309 23.984 146.845 23.984ZM180.655 26L173.135 5.968H173.007C173.071 6.62933 173.124 7.52533 173.167 8.656C173.209 9.76533 173.231 10.928 173.231 12.144V26H170.575V3.152H174.831L181.871 21.872H181.999L189.167 3.152H193.391V26H190.543V11.952C190.543 10.8427 190.564 9.744 190.607 8.656C190.671 7.568 190.724 6.68267 190.767 6H190.639L183.023 26H180.655ZM206.358 8.56C208.449 8.56 209.995 9.01867 210.998 9.936C212.001 10.8533 212.502 12.3147 212.502 14.32V26H210.454L209.91 23.568H209.782C209.035 24.5067 208.246 25.2 207.414 25.648C206.603 26.096 205.473 26.32 204.022 26.32C202.465 26.32 201.174 25.9147 200.15 25.104C199.126 24.272 198.614 22.9813 198.614 21.232C198.614 19.5253 199.286 18.2133 200.63 17.296C201.974 16.3573 204.043 15.8453 206.838 15.76L209.75 15.664V14.64C209.75 13.2107 209.441 12.2187 208.822 11.664C208.203 11.1093 207.329 10.832 206.198 10.832C205.302 10.832 204.449 10.9707 203.638 11.248C202.827 11.504 202.07 11.8027 201.366 12.144L200.502 10.032C201.249 9.62667 202.134 9.28533 203.158 9.008C204.182 8.70933 205.249 8.56 206.358 8.56ZM207.19 17.712C205.057 17.7973 203.574 18.1387 202.742 18.736C201.931 19.3333 201.526 20.176 201.526 21.264C201.526 22.224 201.814 22.928 202.39 23.376C202.987 23.824 203.745 24.048 204.662 24.048C206.113 24.048 207.318 23.6533 208.278 22.864C209.238 22.0533 209.718 20.816 209.718 19.152V17.616L207.19 17.712ZM221.223 14.384C221.223 14.7253 221.202 15.1733 221.159 15.728C221.138 16.2827 221.117 16.7627 221.095 17.168H221.223C221.351 16.9973 221.543 16.752 221.799 16.432C222.055 16.112 222.311 15.792 222.567 15.472C222.845 15.1307 223.079 14.8533 223.271 14.64L228.743 8.848H232.039L225.095 16.176L232.519 26H229.127L223.175 18L221.223 19.696V26H218.439V1.68H221.223V14.384ZM242.797 8.528C244.269 8.528 245.528 8.848 246.573 9.488C247.64 10.128 248.45 11.0347 249.005 12.208C249.581 13.36 249.869 14.7147 249.869 16.272V17.968H238.125C238.168 19.9093 238.658 21.392 239.597 22.416C240.557 23.4187 241.89 23.92 243.597 23.92C244.685 23.92 245.645 23.824 246.477 23.632C247.33 23.4187 248.205 23.12 249.101 22.736V25.2C248.226 25.584 247.362 25.8613 246.509 26.032C245.656 26.224 244.642 26.32 243.469 26.32C241.848 26.32 240.408 25.9893 239.149 25.328C237.912 24.6667 236.941 23.6853 236.237 22.384C235.554 21.0613 235.213 19.4507 235.213 17.552C235.213 15.6747 235.522 14.064 236.141 12.72C236.781 11.376 237.666 10.3413 238.797 9.616C239.949 8.89067 241.282 8.528 242.797 8.528ZM242.765 10.832C241.421 10.832 240.354 11.2693 239.565 12.144C238.797 12.9973 238.338 14.192 238.189 15.728H246.925C246.904 14.2773 246.562 13.104 245.901 12.208C245.24 11.2907 244.194 10.832 242.765 10.832ZM270.918 8.56C273.009 8.56 274.555 9.01867 275.558 9.936C276.561 10.8533 277.062 12.3147 277.062 14.32V26H275.014L274.47 23.568H274.342C273.595 24.5067 272.806 25.2 271.974 25.648C271.163 26.096 270.033 26.32 268.582 26.32C267.025 26.32 265.734 25.9147 264.71 25.104C263.686 24.272 263.174 22.9813 263.174 21.232C263.174 19.5253 263.846 18.2133 265.19 17.296C266.534 16.3573 268.603 15.8453 271.398 15.76L274.31 15.664V14.64C274.31 13.2107 274.001 12.2187 273.382 11.664C272.763 11.1093 271.889 10.832 270.758 10.832C269.862 10.832 269.009 10.9707 268.198 11.248C267.387 11.504 266.63 11.8027 265.926 12.144L265.062 10.032C265.809 9.62667 266.694 9.28533 267.718 9.008C268.742 8.70933 269.809 8.56 270.918 8.56ZM271.75 17.712C269.617 17.7973 268.134 18.1387 267.302 18.736C266.491 19.3333 266.086 20.176 266.086 21.264C266.086 22.224 266.374 22.928 266.95 23.376C267.547 23.824 268.305 24.048 269.222 24.048C270.673 24.048 271.878 23.6533 272.838 22.864C273.798 22.0533 274.278 20.816 274.278 19.152V17.616L271.75 17.712ZM311.234 14.352C311.234 18.2133 310.178 21.1253 308.066 23.088C305.975 25.0293 303.052 26 299.298 26H292.93V3.152H299.97C302.274 3.152 304.268 3.57867 305.954 4.432C307.639 5.28533 308.94 6.544 309.858 8.208C310.775 9.85067 311.234 11.8987 311.234 14.352ZM308.194 14.448C308.194 11.3973 307.436 9.168 305.922 7.76C304.428 6.33067 302.306 5.616 299.554 5.616H295.81V23.536H298.914C305.1 23.536 308.194 20.5067 308.194 14.448ZM318.001 2.416C318.427 2.416 318.801 2.56533 319.121 2.864C319.462 3.14133 319.633 3.58933 319.633 4.208C319.633 4.80533 319.462 5.25333 319.121 5.552C318.801 5.85067 318.427 6 318.001 6C317.531 6 317.137 5.85067 316.817 5.552C316.497 5.25333 316.337 4.80533 316.337 4.208C316.337 3.58933 316.497 3.14133 316.817 2.864C317.137 2.56533 317.531 2.416 318.001 2.416ZM319.377 8.848V26H316.561V8.848H319.377ZM333.355 11.024H329.035V26H326.219V11.024H323.211V9.712L326.219 8.752V7.76C326.219 5.54133 326.709 3.952 327.691 2.992C328.672 2.01067 330.037 1.52 331.787 1.52C332.469 1.52 333.088 1.584 333.643 1.712C334.219 1.81867 334.709 1.94667 335.115 2.096L334.379 4.304C334.037 4.19733 333.643 4.09067 333.195 3.984C332.747 3.87733 332.288 3.824 331.819 3.824C330.88 3.824 330.176 4.144 329.707 4.784C329.259 5.40267 329.035 6.384 329.035 7.728V8.848H333.355V11.024ZM344.363 11.024H340.043V26H337.227V11.024H334.219V9.712L337.227 8.752V7.76C337.227 5.54133 337.717 3.952 338.699 2.992C339.68 2.01067 341.045 1.52 342.795 1.52C343.477 1.52 344.096 1.584 344.651 1.712C345.227 1.81867 345.717 1.94667 346.123 2.096L345.387 4.304C345.045 4.19733 344.651 4.09067 344.203 3.984C343.755 3.87733 343.296 3.824 342.827 3.824C341.888 3.824 341.184 4.144 340.715 4.784C340.267 5.40267 340.043 6.384 340.043 7.728V8.848H344.363V11.024ZM354.746 8.528C356.218 8.528 357.477 8.848 358.522 9.488C359.589 10.128 360.399 11.0347 360.954 12.208C361.53 13.36 361.818 14.7147 361.818 16.272V17.968H350.074C350.117 19.9093 350.607 21.392 351.546 22.416C352.506 23.4187 353.839 23.92 355.546 23.92C356.634 23.92 357.594 23.824 358.426 23.632C359.279 23.4187 360.154 23.12 361.05 22.736V25.2C360.175 25.584 359.311 25.8613 358.458 26.032C357.605 26.224 356.591 26.32 355.418 26.32C353.797 26.32 352.357 25.9893 351.098 25.328C349.861 24.6667 348.89 23.6853 348.186 22.384C347.503 21.0613 347.162 19.4507 347.162 17.552C347.162 15.6747 347.471 14.064 348.09 12.72C348.73 11.376 349.615 10.3413 350.746 9.616C351.898 8.89067 353.231 8.528 354.746 8.528ZM354.714 10.832C353.37 10.832 352.303 11.2693 351.514 12.144C350.746 12.9973 350.287 14.192 350.138 15.728H358.874C358.853 14.2773 358.511 13.104 357.85 12.208C357.189 11.2907 356.143 10.832 354.714 10.832ZM374.824 8.528C375.144 8.528 375.486 8.54933 375.848 8.592C376.232 8.61333 376.563 8.656 376.84 8.72L376.488 11.312C376.211 11.248 375.902 11.1947 375.56 11.152C375.24 11.1093 374.931 11.088 374.632 11.088C373.758 11.088 372.936 11.3333 372.168 11.824C371.4 12.2933 370.782 12.9653 370.312 13.84C369.864 14.6933 369.64 15.696 369.64 16.848V26H366.824V8.848H369.128L369.448 11.984H369.576C370.131 11.0453 370.846 10.2347 371.72 9.552C372.595 8.86933 373.63 8.528 374.824 8.528ZM386.682 8.528C388.154 8.528 389.413 8.848 390.458 9.488C391.525 10.128 392.335 11.0347 392.89 12.208C393.466 13.36 393.754 14.7147 393.754 16.272V17.968H382.01C382.053 19.9093 382.543 21.392 383.482 22.416C384.442 23.4187 385.775 23.92 387.482 23.92C388.57 23.92 389.53 23.824 390.362 23.632C391.215 23.4187 392.09 23.12 392.986 22.736V25.2C392.111 25.584 391.247 25.8613 390.394 26.032C389.541 26.224 388.527 26.32 387.354 26.32C385.733 26.32 384.293 25.9893 383.034 25.328C381.797 24.6667 380.826 23.6853 380.122 22.384C379.439 21.0613 379.098 19.4507 379.098 17.552C379.098 15.6747 379.407 14.064 380.026 12.72C380.666 11.376 381.551 10.3413 382.682 9.616C383.834 8.89067 385.167 8.528 386.682 8.528ZM386.65 10.832C385.306 10.832 384.239 11.2693 383.45 12.144C382.682 12.9973 382.223 14.192 382.074 15.728H390.81C390.789 14.2773 390.447 13.104 389.786 12.208C389.125 11.2907 388.079 10.832 386.65 10.832ZM407.017 8.528C409.065 8.528 410.611 9.02933 411.657 10.032C412.702 11.0133 413.225 12.6133 413.225 14.832V26H410.441V15.024C410.441 12.272 409.161 10.896 406.601 10.896C404.702 10.896 403.39 11.4293 402.665 12.496C401.939 13.5627 401.577 15.0987 401.577 17.104V26H398.761V8.848H401.033L401.449 11.184H401.609C402.163 10.288 402.931 9.62667 403.913 9.2C404.894 8.752 405.929 8.528 407.017 8.528ZM426.062 26.32C424.547 26.32 423.193 26.0107 421.998 25.392C420.825 24.7733 419.897 23.8133 419.214 22.512C418.553 21.2107 418.222 19.5467 418.222 17.52C418.222 15.408 418.574 13.6907 419.278 12.368C419.982 11.0453 420.931 10.0747 422.126 9.456C423.342 8.83733 424.718 8.528 426.254 8.528C427.129 8.528 427.971 8.624 428.782 8.816C429.593 8.98667 430.254 9.2 430.766 9.456L429.902 11.792C429.39 11.6 428.793 11.4187 428.11 11.248C427.427 11.0773 426.787 10.992 426.19 10.992C422.819 10.992 421.134 13.1573 421.134 17.488C421.134 19.5573 421.539 21.1467 422.35 22.256C423.182 23.344 424.409 23.888 426.03 23.888C426.969 23.888 427.79 23.792 428.494 23.6C429.219 23.408 429.881 23.1733 430.478 22.896V25.392C429.902 25.6907 429.262 25.9147 428.558 26.064C427.875 26.2347 427.043 26.32 426.062 26.32ZM441.821 8.528C443.293 8.528 444.552 8.848 445.597 9.488C446.664 10.128 447.474 11.0347 448.029 12.208C448.605 13.36 448.893 14.7147 448.893 16.272V17.968H437.149C437.192 19.9093 437.682 21.392 438.621 22.416C439.581 23.4187 440.914 23.92 442.621 23.92C443.709 23.92 444.669 23.824 445.501 23.632C446.354 23.4187 447.229 23.12 448.125 22.736V25.2C447.25 25.584 446.386 25.8613 445.533 26.032C444.68 26.224 443.666 26.32 442.493 26.32C440.872 26.32 439.432 25.9893 438.173 25.328C436.936 24.6667 435.965 23.6853 435.261 22.384C434.578 21.0613 434.237 19.4507 434.237 17.552C434.237 15.6747 434.546 14.064 435.165 12.72C435.805 11.376 436.69 10.3413 437.821 9.616C438.973 8.89067 440.306 8.528 441.821 8.528ZM441.789 10.832C440.445 10.832 439.378 11.2693 438.589 12.144C437.821 12.9973 437.362 14.192 437.213 15.728H445.949C445.928 14.2773 445.586 13.104 444.925 12.208C444.264 11.2907 443.218 10.832 441.789 10.832ZM457.289 22.6719V26H453.961V22.6719H457.289Z" fill="black"/>
<path d="M13.7704 24.624L13.1612 23.8309L13.1612 23.8309L13.7704 24.624ZM4.26637 26.032L4.44015 25.0472L4.44015 25.0472L4.26637 26.032ZM1.54637 25.232H0.546368V25.8666L1.12057 26.1368L1.54637 25.232ZM1.54637 22.48L1.95251 21.5662L0.546368 20.9412V22.48H1.54637ZM4.39437 23.408L4.15614 24.3792L4.16031 24.3802L4.39437 23.408ZM11.7864 22.832L11.1832 22.0343L11.1738 22.0416L11.7864 22.832ZM12.6184 18.256L11.7704 18.786L11.7704 18.786L12.6184 18.256ZM10.9544 16.848L10.4505 17.7118L10.4645 17.72L10.4789 17.7277L10.9544 16.848ZM7.72237 15.44L7.38144 16.3801L7.38879 16.3827L7.72237 15.44ZM3.30637 12.848L2.58434 13.5399L2.59186 13.5476L3.30637 12.848ZM2.76237 5.552L3.57203 6.13901L3.57878 6.12946L2.76237 5.552ZM5.32237 3.536L4.93272 2.61501L4.92628 2.61779L5.32237 3.536ZM12.5864 3.184L12.8054 2.20828L12.8054 2.20828L12.5864 3.184ZM15.4344 4.112L16.3742 4.45374L16.6915 3.58111L15.8447 3.20008L15.4344 4.112ZM14.5384 6.576L14.1415 7.49386L15.1155 7.91506L15.4782 6.91774L14.5384 6.576ZM11.9464 5.712L11.6985 6.68082L11.7038 6.68214L11.9464 5.712ZM5.83437 6.288L6.47008 7.05993L6.47674 7.05444L6.48331 7.04883L5.83437 6.288ZM5.22637 10.608L6.07437 10.078L6.07437 10.078L5.22637 10.608ZM6.79437 11.984L6.30655 12.8569L6.30655 12.8569L6.79437 11.984ZM9.73837 13.296L9.38369 14.2311L9.39543 14.2354L9.73837 13.296ZM13.1304 14.896L12.5986 15.7429L12.61 15.7501L12.6216 15.7569L13.1304 14.896ZM15.2424 16.912L14.3828 17.4231L14.3879 17.4316L14.3931 17.4399L15.2424 16.912ZM14.9784 19.888C14.9784 21.6368 14.3618 22.9087 13.1612 23.8309L14.3795 25.4171C16.1229 24.0779 16.9784 22.1925 16.9784 19.888H14.9784ZM13.1612 23.8309C11.9155 24.7878 10.1695 25.32 7.81837 25.32V27.32C10.4593 27.32 12.6812 26.7216 14.3795 25.4171L13.1612 23.8309ZM7.81837 25.32C6.5877 25.32 5.46261 25.2277 4.44015 25.0472L4.09258 27.0168C5.24612 27.2203 6.48903 27.32 7.81837 27.32V25.32ZM4.44015 25.0472C3.409 24.8652 2.59365 24.6196 1.97216 24.3272L1.12057 26.1368C1.94975 26.527 2.94773 26.8148 4.09258 27.0168L4.44015 25.0472ZM2.54637 25.232V22.48H0.546368V25.232H2.54637ZM1.14023 23.3938C1.97857 23.7664 2.98813 24.0927 4.15615 24.3792L4.63259 22.4368C3.53927 22.1686 2.65017 21.8763 1.95251 21.5662L1.14023 23.3938ZM4.16031 24.3802C5.39096 24.6765 6.6536 24.824 7.94637 24.824V22.824C6.80713 22.824 5.70178 22.6942 4.62842 22.4358L4.16031 24.3802ZM7.94637 24.824C9.75447 24.824 11.2944 24.4784 12.3989 23.6224L11.1738 22.0416C10.5717 22.5082 9.5516 22.824 7.94637 22.824V24.824ZM12.3895 23.6297C13.5231 22.7725 14.0984 21.5766 14.0984 20.144H12.0984C12.0984 20.9727 11.799 21.5688 11.1833 22.0343L12.3895 23.6297ZM14.0984 20.144C14.0984 19.2542 13.9068 18.4307 13.4664 17.726L11.7704 18.786C11.9699 19.1053 12.0984 19.5405 12.0984 20.144H14.0984ZM13.4664 17.726C13.0206 17.0127 12.3029 16.4402 11.4299 15.9683L10.4789 17.7277C11.1845 18.1092 11.5762 18.4753 11.7704 18.786L13.4664 17.726ZM11.4582 15.9842C10.6125 15.4909 9.46878 14.9972 8.05595 14.4973L7.38879 16.3827C8.74929 16.8641 9.76022 17.3091 10.4505 17.7118L11.4582 15.9842ZM8.06328 14.4999C6.2053 13.8261 4.88283 13.0287 4.02088 12.1484L2.59186 13.5476C3.73524 14.7153 5.35677 15.6459 7.38145 16.3801L8.06328 14.4999ZM4.02836 12.1561C3.26709 11.3617 2.83437 10.2361 2.83437 8.656H0.834368C0.834368 10.6173 1.38297 12.2863 2.58438 13.5399L4.02836 12.1561ZM2.83437 8.656C2.83437 7.61724 3.09542 6.79628 3.57198 6.13897L1.95276 4.96503C1.19198 6.01438 0.834368 7.26276 0.834368 8.656H2.83437ZM3.57878 6.12946C4.08029 5.42044 4.78078 4.8587 5.71846 4.45421L4.92628 2.61779C3.68796 3.15197 2.68178 3.93423 1.94595 4.97453L3.57878 6.12946ZM5.71201 4.45697C6.6773 4.04857 7.81034 3.832 9.13037 3.832V1.832C7.59173 1.832 6.18611 2.08476 4.93273 2.61503L5.71201 4.45697ZM9.13037 3.832C10.3278 3.832 11.4051 3.9437 12.3673 4.15971L12.8054 2.20828C11.677 1.95496 10.4503 1.832 9.13037 1.832V3.832ZM12.3673 4.15971C13.3562 4.3817 14.2402 4.67122 15.024 5.02392L15.8447 3.20008C14.9219 2.78478 13.9072 2.45563 12.8054 2.20828L12.3673 4.15971ZM14.4946 3.77026L13.5986 6.23426L15.4782 6.91774L16.3742 4.45374L14.4946 3.77026ZM14.9353 5.65814C14.0903 5.29273 13.1739 4.98811 12.1889 4.74186L11.7038 6.68214C12.5961 6.90522 13.4078 7.1766 14.1415 7.49386L14.9353 5.65814ZM12.1942 4.7432C11.1913 4.48663 10.1477 4.36 9.06637 4.36V6.36C9.99035 6.36 10.8668 6.46803 11.6985 6.6808L12.1942 4.7432ZM9.06637 4.36C7.51391 4.36 6.16321 4.69317 5.18542 5.52716L6.48331 7.04883C6.9562 6.64549 7.76016 6.36 9.06637 6.36V4.36ZM5.19866 5.51607C4.22552 6.31748 3.74637 7.40946 3.74637 8.688H5.74637C5.74637 7.9612 5.99255 7.45318 6.47008 7.05993L5.19866 5.51607ZM3.74637 8.688C3.74637 9.59297 3.93532 10.4291 4.37837 11.138L6.07437 10.078C5.87742 9.76288 5.74637 9.31903 5.74637 8.688H3.74637ZM4.37837 11.138C4.81492 11.8365 5.48685 12.3989 6.30655 12.8569L7.28219 11.1111C6.65122 10.7585 6.27782 10.4035 6.07437 10.078L4.37837 11.138ZM6.30655 12.8569C7.09209 13.2959 8.12398 13.7532 9.38371 14.231L10.093 12.361C8.87809 11.9002 7.94731 11.4827 7.28219 11.1111L6.30655 12.8569ZM9.39543 14.2354C10.6931 14.7091 11.7562 15.214 12.5986 15.7429L13.6621 14.0491C12.6698 13.426 11.4716 12.8642 10.0813 12.3566L9.39543 14.2354ZM12.6216 15.7569C13.4429 16.2422 14.014 16.8027 14.3828 17.4231L16.1019 16.4009C15.5321 15.4426 14.6952 14.6591 13.6391 14.0351L12.6216 15.7569ZM14.3931 17.4399C14.7608 18.0315 14.9784 18.8274 14.9784 19.888H16.9784C16.9784 18.5592 16.7053 17.3712 16.0917 16.3841L14.3931 17.4399ZM23.4929 11.216L22.5029 11.0746L22.3399 12.216H23.4929V11.216ZM23.6849 11.216V12.216H24.2348L24.5294 11.7515L23.6849 11.216ZM25.9249 9.232L25.502 8.32578L25.4941 8.32952L25.9249 9.232ZM33.7329 10.064L33.0406 10.7857L33.0484 10.7931L33.7329 10.064ZM35.3009 26V27H36.3009V26H35.3009ZM32.5169 26H31.5169V27H32.5169V26ZM24.7089 12.528L23.8768 11.9733L23.8743 11.9772L24.7089 12.528ZM23.6529 26V27H24.6529V26H23.6529ZM20.8369 26H19.8369V27H20.8369V26ZM20.8369 1.68V0.679998H19.8369V1.68H20.8369ZM23.6529 1.68H24.6529V0.679998H23.6529V1.68ZM22.6529 8.816C22.6529 9.62805 22.6021 10.3804 22.5029 11.0746L24.4828 11.3574C24.597 10.5583 24.6529 9.71062 24.6529 8.816H22.6529ZM23.4929 12.216H23.6849V10.216H23.4929V12.216ZM24.5294 11.7515C24.9829 11.0364 25.5858 10.5019 26.3556 10.1345L25.4941 8.32952C24.3866 8.85814 23.4962 9.6463 22.8404 10.6805L24.5294 11.7515ZM26.3478 10.1382C27.1691 9.75489 28.0586 9.56 29.0289 9.56V7.56C27.7805 7.56 26.6006 7.81311 25.502 8.32582L26.3478 10.1382ZM29.0289 9.56C30.9756 9.56 32.2501 10.0274 33.0406 10.7857L34.4251 9.34232C33.1249 8.09523 31.2635 7.56 29.0289 7.56V9.56ZM33.0484 10.7931C33.8065 11.5047 34.3009 12.7653 34.3009 14.832H36.3009C36.3009 12.504 35.7499 10.586 34.4173 9.33493L33.0484 10.7931ZM34.3009 14.832V26H36.3009V14.832H34.3009ZM35.3009 25H32.5169V27H35.3009V25ZM33.5169 26V15.024H31.5169V26H33.5169ZM33.5169 15.024C33.5169 13.5111 33.1665 12.1902 32.2891 11.2469C31.3989 10.29 30.1303 9.896 28.6769 9.896V11.896C29.7834 11.896 30.4348 12.19 30.8247 12.6091C31.2272 13.0418 31.5169 13.7849 31.5169 15.024H33.5169ZM28.6769 9.896C26.5897 9.896 24.8643 10.492 23.8768 11.9733L25.5409 13.0827C26.0041 12.388 26.924 11.896 28.6769 11.896V9.896ZM23.8743 11.9772C23.0171 13.2759 22.6529 15.0374 22.6529 17.136H24.6529C24.6529 15.2239 24.9926 13.9135 25.5435 13.0788L23.8743 11.9772ZM22.6529 17.136V26H24.6529V17.136H22.6529ZM23.6529 25H20.8369V27H23.6529V25ZM21.8369 26V1.68H19.8369V26H21.8369ZM20.8369 2.68H23.6529V0.679998H20.8369V2.68ZM22.6529 1.68V8.816H24.6529V1.68H22.6529ZM52.3941 9.936L53.0691 9.19819L53.0691 9.19819L52.3941 9.936ZM53.8981 26V27H54.8981V26H53.8981ZM51.8501 26L50.8742 26.2183L51.0491 27H51.8501V26ZM51.3061 23.568L52.282 23.3497L52.1071 22.568H51.3061V23.568ZM51.1781 23.568V22.568H50.6958L50.3955 22.9455L51.1781 23.568ZM48.8101 25.648L48.336 24.7675L48.3264 24.7728L48.8101 25.648ZM41.5461 25.104L40.9155 25.8802L40.9254 25.888L41.5461 25.104ZM42.0261 17.296L42.5899 18.122L42.5987 18.1158L42.0261 17.296ZM48.2341 15.76L48.2646 16.7595L48.2671 16.7595L48.2341 15.76ZM51.1461 15.664L51.1791 16.6635L52.1461 16.6316V15.664H51.1461ZM50.2181 11.664L49.5506 12.4086L49.5506 12.4086L50.2181 11.664ZM45.0341 11.248L45.3352 12.2016L45.3466 12.198L45.3578 12.1942L45.0341 11.248ZM42.7621 12.144L41.8366 12.5226L42.2399 13.5085L43.1984 13.0438L42.7621 12.144ZM41.8981 10.032L41.421 9.15315L40.6331 9.58087L40.9726 10.4106L41.8981 10.032ZM44.5541 9.008L44.8155 9.97323L44.8248 9.9707L44.8341 9.968L44.5541 9.008ZM48.5861 17.712L48.5482 16.7127L48.5461 16.7128L48.5861 17.712ZM44.1381 18.736L43.5549 17.9236L43.5449 17.9309L44.1381 18.736ZM43.7861 23.376L43.1722 24.1654L43.1791 24.1707L43.1861 24.176L43.7861 23.376ZM49.6741 22.864L50.3093 23.6365L50.3193 23.628L49.6741 22.864ZM51.1141 17.616H52.1141V16.5773L51.0762 16.6167L51.1141 17.616ZM47.7541 9.56C49.7248 9.56 50.9783 9.99601 51.7191 10.6738L53.0691 9.19819C51.8046 8.04132 49.9648 7.56 47.7541 7.56V9.56ZM51.7191 10.6738C52.4328 11.3267 52.8981 12.4607 52.8981 14.32H54.8981C54.8981 12.1687 54.3608 10.3799 53.0691 9.19819L51.7191 10.6738ZM52.8981 14.32V26H54.8981V14.32H52.8981ZM53.8981 25H51.8501V27H53.8981V25ZM52.826 25.7817L52.282 23.3497L50.3302 23.7863L50.8742 26.2183L52.826 25.7817ZM51.3061 22.568H51.1781V24.568H51.3061V22.568ZM50.3955 22.9455C49.7113 23.8056 49.0213 24.3985 48.336 24.7675L49.2842 26.5285C50.2629 26.0015 51.1516 25.2077 51.9607 24.1905L50.3955 22.9455ZM48.3264 24.7728C47.7248 25.1053 46.7865 25.32 45.4181 25.32V27.32C46.9511 27.32 48.2741 27.0867 49.2938 26.5232L48.3264 24.7728ZM45.4181 25.32C44.0411 25.32 42.9819 24.9652 42.1668 24.32L40.9254 25.888C42.1584 26.8641 43.6804 27.32 45.4181 27.32V25.32ZM42.1767 24.3279C41.4573 23.7434 41.0101 22.7853 41.0101 21.232H39.0101C39.0101 23.1773 39.5869 24.8006 40.9155 25.8801L42.1767 24.3279ZM41.0101 21.232C41.0101 19.8366 41.5343 18.8424 42.5899 18.1219L41.4624 16.47C39.8299 17.5843 39.0101 19.214 39.0101 21.232H41.0101ZM42.5987 18.1158C43.7065 17.3422 45.5425 16.8427 48.2646 16.7595L48.2036 14.7605C45.3364 14.848 43.0338 15.3725 41.4535 16.4762L42.5987 18.1158ZM48.2671 16.7595L51.1791 16.6635L51.1132 14.6645L48.2012 14.7605L48.2671 16.7595ZM52.1461 15.664V14.64H50.1461V15.664H52.1461ZM52.1461 14.64C52.1461 13.1206 51.8267 11.7631 50.8857 10.9194L49.5506 12.4086C49.8469 12.6742 50.1461 13.3008 50.1461 14.64H52.1461ZM50.8857 10.9194C50.0262 10.1489 48.8815 9.832 47.5941 9.832V11.832C48.5681 11.832 49.1727 12.0698 49.5506 12.4086L50.8857 10.9194ZM47.5941 9.832C46.5931 9.832 45.63 9.98725 44.7104 10.3018L45.3578 12.1942C46.0596 11.9541 46.8032 11.832 47.5941 11.832V9.832ZM44.733 10.2944C43.88 10.5638 43.0771 10.8799 42.3258 11.2442L43.1984 13.0438C43.8551 12.7254 44.5669 12.4442 45.3352 12.2016L44.733 10.2944ZM43.6877 11.7654L42.8237 9.65337L40.9726 10.4106L41.8366 12.5226L43.6877 11.7654ZM42.3752 10.9109C43.0392 10.5504 43.8488 10.235 44.8155 9.97323L44.2927 8.04277C43.2114 8.33563 42.2504 8.70291 41.421 9.15315L42.3752 10.9109ZM44.8341 9.968C45.7636 9.69691 46.7357 9.56 47.7541 9.56V7.56C46.5538 7.56 45.3927 7.72175 44.2741 8.048L44.8341 9.968ZM48.5461 16.7128C46.3888 16.7991 44.6436 17.1421 43.5549 17.9237L44.7213 19.5483C45.2966 19.1353 46.5168 18.7956 48.6261 18.7112L48.5461 16.7128ZM43.5449 17.9309C42.4554 18.7337 41.9221 19.888 41.9221 21.264H43.9221C43.9221 20.464 44.1995 19.9329 44.7313 19.5411L43.5449 17.9309ZM41.9221 21.264C41.9221 22.4272 42.28 23.4714 43.1722 24.1654L44.4001 22.5866C44.1403 22.3846 43.9221 22.0208 43.9221 21.264H41.9221ZM43.1861 24.176C43.993 24.7812 44.9749 25.048 46.0581 25.048V23.048C45.3067 23.048 44.7739 22.8668 44.3861 22.576L43.1861 24.176ZM46.0581 25.048C47.6998 25.048 49.1412 24.5968 50.3092 23.6364L49.039 22.0916C48.287 22.7099 47.3178 23.048 46.0581 23.048V25.048ZM50.3193 23.628C51.5719 22.5703 52.1141 21.0088 52.1141 19.152H50.1141C50.1141 20.6232 49.6964 21.5364 49.0289 22.1L50.3193 23.628ZM52.1141 19.152V17.616H50.1141V19.152H52.1141ZM51.0762 16.6167L48.5482 16.7127L48.6241 18.7113L51.1521 18.6153L51.0762 16.6167ZM68.8596 8.592L68.7428 9.58515L68.7734 9.58875L68.8041 9.59046L68.8596 8.592ZM69.8516 8.72L70.8425 8.85457L70.9653 7.95071L70.0765 7.74561L69.8516 8.72ZM69.4996 11.312L69.2748 12.2864L70.343 12.5329L70.4905 11.4466L69.4996 11.312ZM68.5716 11.152L68.4394 12.1433L68.4476 12.1443L68.5716 11.152ZM65.1796 11.824L65.7011 12.6773L65.7096 12.6721L65.718 12.6667L65.1796 11.824ZM63.3236 13.84L62.4424 13.3672L62.4382 13.3752L63.3236 13.84ZM62.6516 26V27H63.6516V26H62.6516ZM59.8356 26H58.8356V27H59.8356V26ZM59.8356 8.848V7.848H58.8356V8.848H59.8356ZM62.1396 8.848L63.1345 8.74649L63.0428 7.848H62.1396V8.848ZM62.4596 11.984L61.4648 12.0855L61.5565 12.984H62.4596V11.984ZM62.5876 11.984V12.984H63.1582L63.4485 12.4927L62.5876 11.984ZM64.7316 9.552L65.3469 10.3403L65.3469 10.3403L64.7316 9.552ZM67.8356 9.528C68.1116 9.528 68.4136 9.54642 68.7428 9.58515L68.9765 7.59885C68.5803 7.55224 68.1997 7.528 67.8356 7.528V9.528ZM68.8041 9.59046C69.1495 9.60965 69.4206 9.64681 69.6268 9.69439L70.0765 7.74561C69.728 7.66519 69.3377 7.61702 68.9151 7.59354L68.8041 9.59046ZM68.8607 8.58543L68.5087 11.1774L70.4905 11.4466L70.8425 8.85457L68.8607 8.58543ZM69.7245 10.3376C69.4079 10.2645 69.0642 10.2058 68.6957 10.1597L68.4476 12.1443C68.7617 12.1835 69.0367 12.2315 69.2748 12.2864L69.7245 10.3376ZM68.7038 10.1608C68.3435 10.1127 67.9899 10.088 67.6436 10.088V12.088C67.8947 12.088 68.1598 12.1059 68.4395 12.1432L68.7038 10.1608ZM67.6436 10.088C66.5699 10.088 65.5629 10.3924 64.6412 10.9813L65.718 12.6667C66.3323 12.2742 66.968 12.088 67.6436 12.088V10.088ZM64.6582 10.9707C63.7233 11.542 62.9869 12.3525 62.4425 13.3672L64.2048 14.3128C64.599 13.5781 65.0999 13.0447 65.7011 12.6773L64.6582 10.9707ZM62.4382 13.3752C61.9016 14.3974 61.6516 15.5655 61.6516 16.848H63.6516C63.6516 15.8265 63.8497 14.9893 64.209 14.3048L62.4382 13.3752ZM61.6516 16.848V26H63.6516V16.848H61.6516ZM62.6516 25H59.8356V27H62.6516V25ZM60.8356 26V8.848H58.8356V26H60.8356ZM59.8356 9.848H62.1396V7.848H59.8356V9.848ZM61.1448 8.94951L61.4648 12.0855L63.4545 11.8825L63.1345 8.74649L61.1448 8.94951ZM62.4596 12.984H62.5876V10.984H62.4596V12.984ZM63.4485 12.4927C63.9384 11.6637 64.5691 10.9474 65.3469 10.3403L64.1163 8.76368C63.1448 9.52196 62.3462 10.4269 61.7267 11.4753L63.4485 12.4927ZM65.3469 10.3403C66.0319 9.80565 66.8457 9.528 67.8356 9.528V7.528C66.4362 7.528 65.1806 7.93302 64.1163 8.76368L65.3469 10.3403ZM83.4694 9.488L82.9472 10.3409L82.9549 10.3455L83.4694 9.488ZM85.9014 12.208L84.9973 12.6354L85.002 12.6453L85.0069 12.6552L85.9014 12.208ZM86.7654 17.968V18.968H87.7654V17.968H86.7654ZM75.0214 17.968V16.968H73.9991L74.0216 17.99L75.0214 17.968ZM76.4934 22.416L75.7562 23.0917L75.7635 23.0997L75.7711 23.1076L76.4934 22.416ZM83.3734 23.632L83.5982 24.6064L83.6071 24.6043L83.6159 24.6021L83.3734 23.632ZM85.9974 22.736H86.9974V21.2195L85.6034 21.8169L85.9974 22.736ZM85.9974 25.2L86.3994 26.1156L86.9974 25.8531V25.2H85.9974ZM83.4054 26.032L83.2092 25.0514L83.1975 25.0538L83.1859 25.0564L83.4054 26.032ZM76.0454 25.328L75.574 26.21L75.5802 26.2132L76.0454 25.328ZM73.1334 22.384L72.2447 22.8426L72.2492 22.8513L72.2538 22.8598L73.1334 22.384ZM73.0374 12.72L72.1344 12.29L72.129 12.3019L73.0374 12.72ZM75.6934 9.616L75.1605 8.76974L75.1534 8.77431L75.6934 9.616ZM76.4614 12.144L75.719 11.474L75.7181 11.475L76.4614 12.144ZM75.0854 15.728L74.0901 15.6312L73.9834 16.728H75.0854V15.728ZM83.8214 15.728V16.728H84.8362L84.8213 15.7133L83.8214 15.728ZM82.7974 12.208L81.9861 12.7928L81.9928 12.8019L82.7974 12.208ZM79.6934 9.528C81.0183 9.528 82.088 9.81483 82.9472 10.3409L83.9915 8.63515C82.76 7.88117 81.3124 7.528 79.6934 7.528V9.528ZM82.9549 10.3455C83.8444 10.8792 84.5232 11.6326 84.9973 12.6354L86.8054 11.7806C86.1702 10.4367 85.2276 9.37678 83.9839 8.63051L82.9549 10.3455ZM85.0069 12.6552C85.5005 13.6423 85.7654 14.8379 85.7654 16.272H87.7654C87.7654 14.5915 87.4543 13.0777 86.7958 11.7608L85.0069 12.6552ZM85.7654 16.272V17.968H87.7654V16.272H85.7654ZM86.7654 16.968H75.0214V18.968H86.7654V16.968ZM74.0216 17.99C74.0675 20.0777 74.5986 21.8288 75.7562 23.0917L77.2305 21.7403C76.5108 20.9552 76.0606 19.7409 76.0211 17.946L74.0216 17.99ZM75.7711 23.1076C76.9614 24.3509 78.5809 24.92 80.4934 24.92V22.92C78.9925 22.92 77.9453 22.4865 77.2157 21.7244L75.7711 23.1076ZM80.4934 24.92C81.6375 24.92 82.6756 24.8193 83.5982 24.6064L83.1485 22.6576C82.4071 22.8287 81.5252 22.92 80.4934 22.92V24.92ZM83.6159 24.6021C84.5262 24.3746 85.4515 24.0579 86.3913 23.6551L85.6034 21.8169C84.7513 22.1821 83.9272 22.4628 83.1308 22.6619L83.6159 24.6021ZM84.9974 22.736V25.2H86.9974V22.736H84.9974ZM85.5954 24.2844C84.7804 24.6421 83.9853 24.8962 83.2092 25.0514L83.6015 27.0126C84.5321 26.8265 85.465 26.5259 86.3994 26.1156L85.5954 24.2844ZM83.1859 25.0564C82.4242 25.2278 81.4882 25.32 80.3654 25.32V27.32C81.5892 27.32 82.6798 27.2202 83.6249 27.0076L83.1859 25.0564ZM80.3654 25.32C78.8831 25.32 77.6067 25.0187 76.5105 24.4428L75.5802 26.2132C77.0014 26.9599 78.6049 27.32 80.3654 27.32V25.32ZM76.5167 24.4461C75.462 23.8823 74.629 23.047 74.0129 21.9082L72.2538 22.8598C73.0458 24.3237 74.1541 25.451 75.574 26.2099L76.5167 24.4461ZM74.022 21.9254C73.4299 20.7782 73.1094 19.3339 73.1094 17.552H71.1094C71.1094 19.5675 71.4715 21.3445 72.2447 22.8426L74.022 21.9254ZM73.1094 17.552C73.1094 15.7815 73.4014 14.3207 73.9457 13.1381L72.129 12.3019C71.436 13.8073 71.1094 15.5678 71.1094 17.552H73.1094ZM73.9402 13.1499C74.509 11.9556 75.2763 11.0716 76.2333 10.4577L75.1534 8.77431C73.8491 9.61104 72.8458 10.7964 72.1345 12.2901L73.9402 13.1499ZM76.2262 10.4622C77.201 9.84843 78.3453 9.528 79.6934 9.528V7.528C78.0121 7.528 76.4897 7.9329 75.1606 8.76977L76.2262 10.4622ZM79.6614 9.832C78.0784 9.832 76.7255 10.3586 75.719 11.474L77.2038 12.814C77.7759 12.18 78.5564 11.832 79.6614 11.832V9.832ZM75.7181 11.475C74.7651 12.5339 74.253 13.9549 74.0901 15.6312L76.0807 15.8248C76.2164 14.4291 76.6217 13.4607 77.2047 12.813L75.7181 11.475ZM75.0854 16.728H83.8214V14.728H75.0854V16.728ZM84.8213 15.7133C84.7978 14.1168 84.42 12.7225 83.6019 11.6141L81.9928 12.8019C82.4974 13.4855 82.8023 14.4378 82.8215 15.7427L84.8213 15.7133ZM83.6085 11.6232C82.7101 10.377 81.3177 9.832 79.6614 9.832V11.832C80.8637 11.832 81.562 12.2043 81.9862 12.7928L83.6085 11.6232ZM112.454 9.936L113.129 9.19819L113.129 9.19819L112.454 9.936ZM113.958 26V27H114.958V26H113.958ZM111.91 26L110.934 26.2183L111.109 27H111.91V26ZM111.366 23.568L112.342 23.3497L112.167 22.568H111.366V23.568ZM111.238 23.568V22.568H110.756L110.456 22.9455L111.238 23.568ZM108.87 25.648L108.396 24.7675L108.386 24.7728L108.87 25.648ZM101.606 25.104L100.975 25.8802L100.985 25.888L101.606 25.104ZM102.086 17.296L102.65 18.122L102.659 18.1158L102.086 17.296ZM108.294 15.76L108.325 16.7595L108.327 16.7595L108.294 15.76ZM111.206 15.664L111.239 16.6635L112.206 16.6316V15.664H111.206ZM110.278 11.664L109.611 12.4086L109.611 12.4086L110.278 11.664ZM105.094 11.248L105.395 12.2016L105.407 12.198L105.418 12.1942L105.094 11.248ZM102.822 12.144L101.897 12.5226L102.3 13.5085L103.258 13.0438L102.822 12.144ZM101.958 10.032L101.481 9.15315L100.693 9.58087L101.033 10.4106L101.958 10.032ZM104.614 9.008L104.876 9.97323L104.885 9.9707L104.894 9.968L104.614 9.008ZM108.646 17.712L108.608 16.7127L108.606 16.7128L108.646 17.712ZM104.198 18.736L103.615 17.9236L103.605 17.9309L104.198 18.736ZM103.846 23.376L103.232 24.1654L103.239 24.1707L103.246 24.176L103.846 23.376ZM109.734 22.864L110.369 23.6365L110.379 23.628L109.734 22.864ZM111.174 17.616H112.174V16.5773L111.136 16.6167L111.174 17.616ZM107.814 9.56C109.785 9.56 111.038 9.99601 111.779 10.6738L113.129 9.19819C111.865 8.04132 110.025 7.56 107.814 7.56V9.56ZM111.779 10.6738C112.493 11.3267 112.958 12.4607 112.958 14.32H114.958C114.958 12.1687 114.421 10.3799 113.129 9.19819L111.779 10.6738ZM112.958 14.32V26H114.958V14.32H112.958ZM113.958 25H111.91V27H113.958V25ZM112.886 25.7817L112.342 23.3497L110.39 23.7863L110.934 26.2183L112.886 25.7817ZM111.366 22.568H111.238V24.568H111.366V22.568ZM110.456 22.9455C109.771 23.8056 109.081 24.3985 108.396 24.7675L109.344 26.5285C110.323 26.0015 111.212 25.2077 112.021 24.1905L110.456 22.9455ZM108.386 24.7728C107.785 25.1053 106.846 25.32 105.478 25.32V27.32C107.011 27.32 108.334 27.0867 109.354 26.5232L108.386 24.7728ZM105.478 25.32C104.101 25.32 103.042 24.9652 102.227 24.32L100.985 25.888C102.218 26.8641 103.74 27.32 105.478 27.32V25.32ZM102.237 24.3279C101.517 23.7434 101.07 22.7853 101.07 21.232H99.0701C99.0701 23.1773 99.6469 24.8006 100.976 25.8801L102.237 24.3279ZM101.07 21.232C101.07 19.8366 101.594 18.8424 102.65 18.1219L101.522 16.47C99.8899 17.5843 99.0701 19.214 99.0701 21.232H101.07ZM102.659 18.1158C103.766 17.3422 105.603 16.8427 108.325 16.7595L108.264 14.7605C105.396 14.848 103.094 15.3725 101.514 16.4762L102.659 18.1158ZM108.327 16.7595L111.239 16.6635L111.173 14.6645L108.261 14.7605L108.327 16.7595ZM112.206 15.664V14.64H110.206V15.664H112.206ZM112.206 14.64C112.206 13.1206 111.887 11.7631 110.946 10.9194L109.611 12.4086C109.907 12.6742 110.206 13.3008 110.206 14.64H112.206ZM110.946 10.9194C110.086 10.1489 108.941 9.832 107.654 9.832V11.832C108.628 11.832 109.233 12.0698 109.611 12.4086L110.946 10.9194ZM107.654 9.832C106.653 9.832 105.69 9.98725 104.77 10.3018L105.418 12.1942C106.12 11.9541 106.863 11.832 107.654 11.832V9.832ZM104.793 10.2944C103.94 10.5638 103.137 10.8799 102.386 11.2442L103.258 13.0438C103.915 12.7254 104.627 12.4442 105.395 12.2016L104.793 10.2944ZM103.748 11.7654L102.884 9.65337L101.033 10.4106L101.897 12.5226L103.748 11.7654ZM102.435 10.9109C103.099 10.5504 103.909 10.235 104.876 9.97323L104.353 8.04277C103.271 8.33563 102.31 8.70291 101.481 9.15315L102.435 10.9109ZM104.894 9.968C105.824 9.69691 106.796 9.56 107.814 9.56V7.56C106.614 7.56 105.453 7.72175 104.334 8.048L104.894 9.968ZM108.606 16.7128C106.449 16.7991 104.704 17.1421 103.615 17.9237L104.781 19.5483C105.357 19.1353 106.577 18.7956 108.686 18.7112L108.606 16.7128ZM103.605 17.9309C102.515 18.7337 101.982 19.888 101.982 21.264H103.982C103.982 20.464 104.259 19.9329 104.791 19.5411L103.605 17.9309ZM101.982 21.264C101.982 22.4272 102.34 23.4714 103.232 24.1654L104.46 22.5866C104.2 22.3846 103.982 22.0208 103.982 21.264H101.982ZM103.246 24.176C104.053 24.7812 105.035 25.048 106.118 25.048V23.048C105.367 23.048 104.834 22.8668 104.446 22.576L103.246 24.176ZM106.118 25.048C107.76 25.048 109.201 24.5968 110.369 23.6364L109.099 22.0916C108.347 22.7099 107.378 23.048 106.118 23.048V25.048ZM110.379 23.628C111.632 22.5703 112.174 21.0088 112.174 19.152H110.174C110.174 20.6232 109.756 21.5364 109.089 22.1L110.379 23.628ZM112.174 19.152V17.616H110.174V19.152H112.174ZM111.136 16.6167L108.608 16.7127L108.684 18.7113L111.212 18.6153L111.136 16.6167ZM132.792 10.032L132.099 10.7537L132.107 10.7611L132.792 10.032ZM134.36 26V27H135.36V26H134.36ZM131.576 26H130.576V27H131.576V26ZM123.8 12.496L124.627 13.0583L124.627 13.0583L123.8 12.496ZM122.712 26V27H123.712V26H122.712ZM119.896 26H118.896V27H119.896V26ZM119.896 8.848V7.848H118.896V8.848H119.896ZM122.168 8.848L123.152 8.67268L123.005 7.848H122.168V8.848ZM122.584 11.184L121.599 11.3593L121.746 12.184H122.584V11.184ZM122.744 11.184V12.184H123.301L123.594 11.7104L122.744 11.184ZM125.048 9.2L125.446 10.1171L125.455 10.1135L125.463 10.1097L125.048 9.2ZM128.152 9.528C130.049 9.528 131.305 9.99217 132.099 10.7537L133.484 9.31032C132.187 8.06649 130.35 7.528 128.152 7.528V9.528ZM132.107 10.7611C132.864 11.4712 133.36 12.7405 133.36 14.832H135.36C135.36 12.4861 134.81 10.5555 133.476 9.30293L132.107 10.7611ZM133.36 14.832V26H135.36V14.832H133.36ZM134.36 25H131.576V27H134.36V25ZM132.576 26V15.024H130.576V26H132.576ZM132.576 15.024C132.576 13.5111 132.225 12.1902 131.348 11.2469C130.458 10.29 129.189 9.896 127.736 9.896V11.896C128.842 11.896 129.494 12.19 129.883 12.6091C130.286 13.0418 130.576 13.7849 130.576 15.024H132.576ZM127.736 9.896C125.672 9.896 123.961 10.4797 122.973 11.9337L124.627 13.0583C125.089 12.3789 126.002 11.896 127.736 11.896V9.896ZM122.973 11.9337C122.088 13.2348 121.712 15.0012 121.712 17.104H123.712C123.712 15.1961 124.061 13.8906 124.627 13.0583L122.973 11.9337ZM121.712 17.104V26H123.712V17.104H121.712ZM122.712 25H119.896V27H122.712V25ZM120.896 26V8.848H118.896V26H120.896ZM119.896 9.848H122.168V7.848H119.896V9.848ZM121.183 9.02332L121.599 11.3593L123.568 11.0087L123.152 8.67268L121.183 9.02332ZM122.584 12.184H122.744V10.184H122.584V12.184ZM123.594 11.7104C124.04 10.9904 124.649 10.4639 125.446 10.1171L124.649 8.28293C123.484 8.78947 122.557 9.58562 121.893 10.6576L123.594 11.7104ZM125.463 10.1097C126.313 9.72172 127.206 9.528 128.152 9.528V7.528C126.922 7.528 125.745 7.78227 124.632 8.29031L125.463 10.1097ZM141.277 24.112L140.518 24.7628L140.522 24.7682L141.277 24.112ZM141.277 10.8L140.518 10.1483L140.518 10.1492L141.277 10.8ZM149.661 9.264L149.153 10.1254L149.162 10.1309L149.661 9.264ZM151.741 11.056L150.944 11.6599L151.244 12.056H151.741V11.056ZM151.933 11.056V12.056H153.013L152.93 10.9793L151.933 11.056ZM151.805 9.84L150.808 9.9167L150.809 9.93797L150.812 9.95915L151.805 9.84ZM151.741 1.68V0.679998H150.741V1.68H151.741ZM154.557 1.68H155.557V0.679998H154.557V1.68ZM154.557 26V27H155.557V26H154.557ZM152.285 26L151.301 26.1777L151.449 27H152.285V26ZM151.869 23.696L152.853 23.5183L152.704 22.696H151.869V23.696ZM151.741 23.696V22.696H151.223L150.924 23.1193L151.741 23.696ZM149.693 25.552L150.207 26.4095L150.207 26.4095L149.693 25.552ZM150.653 22.512L149.851 21.9147L149.849 21.9176L150.653 22.512ZM150.717 12.592L149.864 13.1135L149.868 13.1206L150.717 12.592ZM143.389 12.688L142.543 12.154L142.541 12.158L143.389 12.688ZM143.389 22.288L142.554 22.8391L142.562 22.8499L143.389 22.288ZM146.397 25.32C144.522 25.32 143.102 24.6874 142.031 23.4558L140.522 24.7682C142.011 26.4806 144.005 27.32 146.397 27.32V25.32ZM142.036 23.4612C140.973 22.2205 140.357 20.276 140.357 17.456H138.357C138.357 20.524 139.021 23.0169 140.518 24.7628L142.036 23.4612ZM140.357 17.456C140.357 14.636 140.973 12.6915 142.036 11.4508L140.518 10.1492C139.021 11.8951 138.357 14.388 138.357 17.456H140.357ZM142.035 11.4517C143.132 10.1747 144.564 9.528 146.429 9.528V7.528C144.027 7.528 142.024 8.39594 140.518 10.1483L142.035 11.4517ZM146.429 9.528C147.636 9.528 148.521 9.75298 149.153 10.1254L150.169 8.40263C149.136 7.79369 147.867 7.528 146.429 7.528V9.528ZM149.162 10.1309C149.913 10.5624 150.5 11.0743 150.944 11.6599L152.538 10.4521C151.915 9.62974 151.116 8.94689 150.159 8.39709L149.162 10.1309ZM151.741 12.056H151.933V10.056H151.741V12.056ZM152.93 10.9793C152.907 10.6802 152.862 10.2579 152.798 9.72086L150.812 9.95915C150.876 10.4888 150.916 10.8771 150.936 11.1327L152.93 10.9793ZM152.802 9.7633C152.76 9.21852 152.741 8.81045 152.741 8.528H150.741C150.741 8.88555 150.764 9.35215 150.808 9.9167L152.802 9.7633ZM152.741 8.528V1.68H150.741V8.528H152.741ZM151.741 2.68H154.557V0.679998H151.741V2.68ZM153.557 1.68V26H155.557V1.68H153.557ZM154.557 25H152.285V27H154.557V25ZM153.269 25.8223L152.853 23.5183L150.885 23.8737L151.301 26.1777L153.269 25.8223ZM151.869 22.696H151.741V24.696H151.869V22.696ZM150.924 23.1193C150.501 23.718 149.927 24.2454 149.178 24.6945L150.207 26.4095C151.166 25.8346 151.956 25.1246 152.558 24.2727L150.924 23.1193ZM149.178 24.6945C148.526 25.0861 147.621 25.32 146.397 25.32V27.32C147.861 27.32 149.153 27.0419 150.207 26.4095L149.178 24.6945ZM146.845 24.984C148.815 24.984 150.465 24.4492 151.457 23.1064L149.849 21.9176C149.391 22.5375 148.502 22.984 146.845 22.984V24.984ZM151.455 23.1093C152.387 21.8576 152.773 20.1004 152.773 18H150.773C150.773 19.9103 150.412 21.161 149.851 21.9147L151.455 23.1093ZM152.773 18V17.488H150.773V18H152.773ZM152.773 17.488C152.773 15.2699 152.411 13.4214 151.566 12.0634L149.868 13.1206C150.43 14.0239 150.773 15.4395 150.773 17.488H152.773ZM151.57 12.0705C150.616 10.5087 148.904 9.864 146.813 9.864V11.864C148.519 11.864 149.41 12.3713 149.864 13.1134L151.57 12.0705ZM146.813 9.864C144.977 9.864 143.506 10.6298 142.543 12.154L144.234 13.222C144.808 12.3142 145.619 11.864 146.813 11.864V9.864ZM142.541 12.158C141.66 13.5667 141.269 15.3838 141.269 17.52H143.269C143.269 15.6029 143.624 14.1986 144.237 13.218L142.541 12.158ZM141.269 17.52C141.269 19.6703 141.658 21.4812 142.554 22.8391L144.223 21.7369C143.627 20.8335 143.269 19.4657 143.269 17.52H141.269ZM142.562 22.8499C143.541 24.292 145.025 24.984 146.845 24.984V22.984C145.592 22.984 144.773 22.5454 144.216 21.7261L142.562 22.8499ZM180.655 26L179.718 26.3515L179.962 27H180.655V26ZM173.135 5.968L174.071 5.61655L173.827 4.968H173.135V5.968ZM173.007 5.968V4.968H171.905L172.011 6.06432L173.007 5.968ZM173.167 8.656L172.167 8.69371L172.167 8.69443L173.167 8.656ZM173.231 26V27H174.231V26H173.231ZM170.575 26H169.575V27H170.575V26ZM170.575 3.152V2.152H169.575V3.152H170.575ZM174.831 3.152L175.767 2.8L175.523 2.152H174.831V3.152ZM181.871 21.872L180.935 22.224L181.178 22.872H181.871V21.872ZM181.999 21.872V22.872H182.687L182.932 22.2296L181.999 21.872ZM189.167 3.152V2.152H188.479L188.233 2.79441L189.167 3.152ZM193.391 3.152H194.391V2.152H193.391V3.152ZM193.391 26V27H194.391V26H193.391ZM190.543 26H189.543V27H190.543V26ZM190.607 8.656L189.608 8.59728L189.608 8.60704L189.607 8.61681L190.607 8.656ZM190.767 6L191.765 6.06238L191.831 5H190.767V6ZM190.639 6V5H189.949L189.704 5.64413L190.639 6ZM183.023 26V27H183.712L183.957 26.3559L183.023 26ZM181.591 25.6485L174.071 5.61655L172.198 6.31945L179.718 26.3515L181.591 25.6485ZM173.135 4.968H173.007V6.968H173.135V4.968ZM172.011 6.06432C172.073 6.69733 172.125 7.5711 172.167 8.69371L174.166 8.61829C174.123 7.47956 174.069 6.56133 174.002 5.87167L172.011 6.06432ZM172.167 8.69443C172.209 9.78982 172.231 10.9396 172.231 12.144H174.231C174.231 10.9164 174.209 9.74084 174.166 8.61757L172.167 8.69443ZM172.231 12.144V26H174.231V12.144H172.231ZM173.231 25H170.575V27H173.231V25ZM171.575 26V3.152H169.575V26H171.575ZM170.575 4.152H174.831V2.152H170.575V4.152ZM173.895 3.504L180.935 22.224L182.807 21.52L175.767 2.8L173.895 3.504ZM181.871 22.872H181.999V20.872H181.871V22.872ZM182.932 22.2296L190.1 3.50959L188.233 2.79441L181.065 21.5144L182.932 22.2296ZM189.167 4.152H193.391V2.152H189.167V4.152ZM192.391 3.152V26H194.391V3.152H192.391ZM193.391 25H190.543V27H193.391V25ZM191.543 26V11.952H189.543V26H191.543ZM191.543 11.952C191.543 10.8555 191.564 9.76989 191.606 8.69518L189.607 8.61681C189.564 9.71811 189.543 10.8298 189.543 11.952H191.543ZM191.605 8.71472C191.669 7.62732 191.722 6.74333 191.765 6.06238L189.769 5.93762C189.726 6.622 189.672 7.50868 189.608 8.59728L191.605 8.71472ZM190.767 5H190.639V7H190.767V5ZM189.704 5.64413L182.088 25.6441L183.957 26.3559L191.573 6.35587L189.704 5.64413ZM183.023 25H180.655V27H183.023V25ZM210.998 9.936L211.673 9.19819L211.673 9.19819L210.998 9.936ZM212.502 26V27H213.502V26H212.502ZM210.454 26L209.478 26.2183L209.653 27H210.454V26ZM209.91 23.568L210.886 23.3497L210.711 22.568H209.91V23.568ZM209.782 23.568V22.568H209.3L208.999 22.9455L209.782 23.568ZM207.414 25.648L206.94 24.7675L206.93 24.7728L207.414 25.648ZM200.15 25.104L199.519 25.8802L199.529 25.888L200.15 25.104ZM200.63 17.296L201.194 18.122L201.202 18.1158L200.63 17.296ZM206.838 15.76L206.868 16.7595L206.871 16.7595L206.838 15.76ZM209.75 15.664L209.783 16.6635L210.75 16.6316V15.664H209.75ZM208.822 11.664L208.154 12.4086L208.154 12.4086L208.822 11.664ZM203.638 11.248L203.939 12.2016L203.95 12.198L203.962 12.1942L203.638 11.248ZM201.366 12.144L200.44 12.5226L200.844 13.5085L201.802 13.0438L201.366 12.144ZM200.502 10.032L200.025 9.15315L199.237 9.58087L199.576 10.4106L200.502 10.032ZM203.158 9.008L203.419 9.97323L203.429 9.9707L203.438 9.968L203.158 9.008ZM207.19 17.712L207.152 16.7127L207.15 16.7128L207.19 17.712ZM202.742 18.736L202.159 17.9236L202.149 17.9309L202.742 18.736ZM202.39 23.376L201.776 24.1654L201.783 24.1707L201.79 24.176L202.39 23.376ZM208.278 22.864L208.913 23.6365L208.923 23.628L208.278 22.864ZM209.718 17.616H210.718V16.5773L209.68 16.6167L209.718 17.616ZM206.358 9.56C208.329 9.56 209.582 9.99601 210.323 10.6738L211.673 9.19819C210.408 8.04132 208.569 7.56 206.358 7.56V9.56ZM210.323 10.6738C211.037 11.3267 211.502 12.4607 211.502 14.32H213.502C213.502 12.1687 212.965 10.3799 211.673 9.19819L210.323 10.6738ZM211.502 14.32V26H213.502V14.32H211.502ZM212.502 25H210.454V27H212.502V25ZM211.43 25.7817L210.886 23.3497L208.934 23.7863L209.478 26.2183L211.43 25.7817ZM209.91 22.568H209.782V24.568H209.91V22.568ZM208.999 22.9455C208.315 23.8056 207.625 24.3985 206.94 24.7675L207.888 26.5285C208.867 26.0015 209.755 25.2077 210.564 24.1905L208.999 22.9455ZM206.93 24.7728C206.329 25.1053 205.39 25.32 204.022 25.32V27.32C205.555 27.32 206.878 27.0867 207.898 26.5232L206.93 24.7728ZM204.022 25.32C202.645 25.32 201.586 24.9652 200.771 24.32L199.529 25.888C200.762 26.8641 202.284 27.32 204.022 27.32V25.32ZM200.78 24.3279C200.061 23.7434 199.614 22.7853 199.614 21.232H197.614C197.614 23.1773 198.191 24.8006 199.519 25.8801L200.78 24.3279ZM199.614 21.232C199.614 19.8366 200.138 18.8424 201.194 18.1219L200.066 16.47C198.434 17.5843 197.614 19.214 197.614 21.232H199.614ZM201.202 18.1158C202.31 17.3422 204.146 16.8427 206.868 16.7595L206.807 14.7605C203.94 14.848 201.638 15.3725 200.057 16.4762L201.202 18.1158ZM206.871 16.7595L209.783 16.6635L209.717 14.6645L206.805 14.7605L206.871 16.7595ZM210.75 15.664V14.64H208.75V15.664H210.75ZM210.75 14.64C210.75 13.1206 210.43 11.7631 209.489 10.9194L208.154 12.4086C208.451 12.6742 208.75 13.3008 208.75 14.64H210.75ZM209.489 10.9194C208.63 10.1489 207.485 9.832 206.198 9.832V11.832C207.172 11.832 207.776 12.0698 208.154 12.4086L209.489 10.9194ZM206.198 9.832C205.197 9.832 204.234 9.98725 203.314 10.3018L203.962 12.1942C204.663 11.9541 205.407 11.832 206.198 11.832V9.832ZM203.337 10.2944C202.484 10.5638 201.681 10.8799 200.93 11.2442L201.802 13.0438C202.459 12.7254 203.171 12.4442 203.939 12.2016L203.337 10.2944ZM202.291 11.7654L201.427 9.65337L199.576 10.4106L200.44 12.5226L202.291 11.7654ZM200.979 10.9109C201.643 10.5504 202.453 10.235 203.419 9.97323L202.896 8.04277C201.815 8.33563 200.854 8.70291 200.025 9.15315L200.979 10.9109ZM203.438 9.968C204.367 9.69691 205.339 9.56 206.358 9.56V7.56C205.158 7.56 203.996 7.72175 202.878 8.048L203.438 9.968ZM207.15 16.7128C204.993 16.7991 203.247 17.1421 202.159 17.9237L203.325 19.5483C203.9 19.1353 205.121 18.7956 207.23 18.7112L207.15 16.7128ZM202.149 17.9309C201.059 18.7337 200.526 19.888 200.526 21.264H202.526C202.526 20.464 202.803 19.9329 203.335 19.5411L202.149 17.9309ZM200.526 21.264C200.526 22.4272 200.884 23.4714 201.776 24.1654L203.004 22.5866C202.744 22.3846 202.526 22.0208 202.526 21.264H200.526ZM201.79 24.176C202.597 24.7812 203.579 25.048 204.662 25.048V23.048C203.91 23.048 203.378 22.8668 202.99 22.576L201.79 24.176ZM204.662 25.048C206.304 25.048 207.745 24.5968 208.913 23.6364L207.643 22.0916C206.891 22.7099 205.922 23.048 204.662 23.048V25.048ZM208.923 23.628C210.176 22.5703 210.718 21.0088 210.718 19.152H208.718C208.718 20.6232 208.3 21.5364 207.633 22.1L208.923 23.628ZM210.718 19.152V17.616H208.718V19.152H210.718ZM209.68 16.6167L207.152 16.7127L207.228 18.7113L209.756 18.6153L209.68 16.6167ZM221.159 15.728L220.162 15.6513L220.161 15.6704L220.16 15.6896L221.159 15.728ZM221.095 17.168L220.097 17.1154L220.041 18.168H221.095V17.168ZM221.223 17.168V18.168H221.723L222.023 17.768L221.223 17.168ZM221.799 16.432L221.018 15.8073L221.018 15.8073L221.799 16.432ZM222.567 15.472L221.791 14.8414L221.786 14.8473L222.567 15.472ZM223.271 14.64L222.544 13.9533L222.536 13.962L222.528 13.971L223.271 14.64ZM228.743 8.848V7.848H228.312L228.016 8.16126L228.743 8.848ZM232.039 8.848L232.765 9.53583L234.365 7.848H232.039V8.848ZM225.095 16.176L224.369 15.4882L223.787 16.1031L224.298 16.7789L225.095 16.176ZM232.519 26V27H234.528L233.317 25.3971L232.519 26ZM229.127 26L228.325 26.5969L228.625 27H229.127V26ZM223.175 18L223.978 17.4031L223.334 16.5376L222.519 17.2451L223.175 18ZM221.223 19.696L220.567 18.9411L220.223 19.2401V19.696H221.223ZM221.223 26V27H222.223V26H221.223ZM218.439 26H217.439V27H218.439V26ZM218.439 1.68V0.679998H217.439V1.68H218.439ZM221.223 1.68H222.223V0.679998H221.223V1.68ZM220.223 14.384C220.223 14.6889 220.204 15.1085 220.162 15.6513L222.156 15.8047C222.2 15.2382 222.223 14.7617 222.223 14.384H220.223ZM220.16 15.6896C220.139 16.2411 220.118 16.7162 220.097 17.1154L222.094 17.2206C222.116 16.8092 222.137 16.3242 222.159 15.7664L220.16 15.6896ZM221.095 18.168H221.223V16.168H221.095V18.168ZM222.023 17.768C222.142 17.6101 222.326 17.3745 222.58 17.0567L221.018 15.8073C220.761 16.1295 220.561 16.3846 220.423 16.568L222.023 17.768ZM222.58 17.0567C222.836 16.7367 223.092 16.4167 223.348 16.0967L221.786 14.8473C221.53 15.1673 221.274 15.4873 221.018 15.8073L222.58 17.0567ZM223.343 16.1026C223.615 15.7683 223.838 15.5051 224.015 15.309L222.528 13.971C222.321 14.2016 222.074 14.4931 221.791 14.8414L223.343 16.1026ZM223.998 15.3267L229.47 9.53474L228.016 8.16126L222.544 13.9533L223.998 15.3267ZM228.743 9.848H232.039V7.848H228.743V9.848ZM231.313 8.16017L224.369 15.4882L225.821 16.8638L232.765 9.53583L231.313 8.16017ZM224.298 16.7789L231.722 26.6029L233.317 25.3971L225.893 15.5731L224.298 16.7789ZM232.519 25H229.127V27H232.519V25ZM229.93 25.4031L223.978 17.4031L222.373 18.5969L228.325 26.5969L229.93 25.4031ZM222.519 17.2451L220.567 18.9411L221.879 20.4509L223.831 18.7549L222.519 17.2451ZM220.223 19.696V26H222.223V19.696H220.223ZM221.223 25H218.439V27H221.223V25ZM219.439 26V1.68H217.439V26H219.439ZM218.439 2.68H221.223V0.679998H218.439V2.68ZM220.223 1.68V14.384H222.223V1.68H220.223ZM246.573 9.488L246.051 10.3409L246.059 10.3455L246.573 9.488ZM249.005 12.208L248.101 12.6354L248.106 12.6453L248.111 12.6552L249.005 12.208ZM249.869 17.968V18.968H250.869V17.968H249.869ZM238.125 17.968V16.968H237.103L237.125 17.99L238.125 17.968ZM239.597 22.416L238.86 23.0917L238.867 23.0997L238.875 23.1076L239.597 22.416ZM246.477 23.632L246.702 24.6064L246.711 24.6043L246.72 24.6021L246.477 23.632ZM249.101 22.736H250.101V21.2195L248.707 21.8169L249.101 22.736ZM249.101 25.2L249.503 26.1156L250.101 25.8531V25.2H249.101ZM246.509 26.032L246.313 25.0514L246.301 25.0538L246.29 25.0564L246.509 26.032ZM239.149 25.328L238.678 26.21L238.684 26.2132L239.149 25.328ZM236.237 22.384L235.349 22.8426L235.353 22.8513L235.358 22.8598L236.237 22.384ZM236.141 12.72L235.238 12.29L235.233 12.3019L236.141 12.72ZM238.797 9.616L238.264 8.76974L238.257 8.77431L238.797 9.616ZM239.565 12.144L238.823 11.474L238.822 11.475L239.565 12.144ZM238.189 15.728L237.194 15.6312L237.087 16.728H238.189V15.728ZM246.925 15.728V16.728H247.94L247.925 15.7133L246.925 15.728ZM245.901 12.208L245.09 12.7928L245.097 12.8019L245.901 12.208ZM242.797 9.528C244.122 9.528 245.192 9.81483 246.051 10.3409L247.095 8.63515C245.864 7.88117 244.416 7.528 242.797 7.528V9.528ZM246.059 10.3455C246.948 10.8792 247.627 11.6326 248.101 12.6354L249.909 11.7806C249.274 10.4367 248.331 9.37678 247.088 8.63051L246.059 10.3455ZM248.111 12.6552C248.604 13.6423 248.869 14.8379 248.869 16.272H250.869C250.869 14.5915 250.558 13.0777 249.9 11.7608L248.111 12.6552ZM248.869 16.272V17.968H250.869V16.272H248.869ZM249.869 16.968H238.125V18.968H249.869V16.968ZM237.125 17.99C237.171 20.0777 237.702 21.8288 238.86 23.0917L240.334 21.7403C239.615 20.9552 239.164 19.7409 239.125 17.946L237.125 17.99ZM238.875 23.1076C240.065 24.3509 241.685 24.92 243.597 24.92V22.92C242.096 22.92 241.049 22.4865 240.319 21.7244L238.875 23.1076ZM243.597 24.92C244.741 24.92 245.779 24.8193 246.702 24.6064L246.252 22.6576C245.511 22.8287 244.629 22.92 243.597 22.92V24.92ZM246.72 24.6021C247.63 24.3746 248.555 24.0579 249.495 23.6551L248.707 21.8169C247.855 22.1821 247.031 22.4628 246.235 22.6619L246.72 24.6021ZM248.101 22.736V25.2H250.101V22.736H248.101ZM248.699 24.2844C247.884 24.6421 247.089 24.8962 246.313 25.0514L246.705 27.0126C247.636 26.8265 248.569 26.5259 249.503 26.1156L248.699 24.2844ZM246.29 25.0564C245.528 25.2278 244.592 25.32 243.469 25.32V27.32C244.693 27.32 245.784 27.2202 246.729 27.0076L246.29 25.0564ZM243.469 25.32C241.987 25.32 240.71 25.0187 239.614 24.4428L238.684 26.2132C240.105 26.9599 241.709 27.32 243.469 27.32V25.32ZM239.621 24.4461C238.566 23.8823 237.733 23.047 237.117 21.9082L235.358 22.8598C236.15 24.3237 237.258 25.451 238.678 26.2099L239.621 24.4461ZM237.126 21.9254C236.534 20.7782 236.213 19.3339 236.213 17.552H234.213C234.213 19.5675 234.575 21.3445 235.349 22.8426L237.126 21.9254ZM236.213 17.552C236.213 15.7815 236.505 14.3207 237.05 13.1381L235.233 12.3019C234.54 13.8073 234.213 15.5678 234.213 17.552H236.213ZM237.044 13.1499C237.613 11.9556 238.38 11.0716 239.337 10.4577L238.257 8.77431C236.953 9.61104 235.95 10.7964 235.238 12.2901L237.044 13.1499ZM239.33 10.4622C240.305 9.84843 241.449 9.528 242.797 9.528V7.528C241.116 7.528 239.593 7.9329 238.264 8.76977L239.33 10.4622ZM242.765 9.832C241.182 9.832 239.829 10.3586 238.823 11.474L240.308 12.814C240.88 12.18 241.66 11.832 242.765 11.832V9.832ZM238.822 11.475C237.869 12.5339 237.357 13.9549 237.194 15.6312L239.184 15.8248C239.32 14.4291 239.725 13.4607 240.308 12.813L238.822 11.475ZM238.189 16.728H246.925V14.728H238.189V16.728ZM247.925 15.7133C247.902 14.1168 247.524 12.7225 246.706 11.6141L245.097 12.8019C245.601 13.4855 245.906 14.4378 245.925 15.7427L247.925 15.7133ZM246.712 11.6232C245.814 10.377 244.421 9.832 242.765 9.832V11.832C243.967 11.832 244.666 12.2043 245.09 12.7928L246.712 11.6232ZM275.558 9.936L276.233 9.19819L276.233 9.19819L275.558 9.936ZM277.062 26V27H278.062V26H277.062ZM275.014 26L274.038 26.2183L274.213 27H275.014V26ZM274.47 23.568L275.446 23.3497L275.271 22.568H274.47V23.568ZM274.342 23.568V22.568H273.86L273.559 22.9455L274.342 23.568ZM271.974 25.648L271.5 24.7675L271.49 24.7728L271.974 25.648ZM264.71 25.104L264.079 25.8802L264.089 25.888L264.71 25.104ZM265.19 17.296L265.754 18.122L265.762 18.1158L265.19 17.296ZM271.398 15.76L271.428 16.7595L271.431 16.7595L271.398 15.76ZM274.31 15.664L274.343 16.6635L275.31 16.6316V15.664H274.31ZM273.382 11.664L272.714 12.4086L272.714 12.4086L273.382 11.664ZM268.198 11.248L268.499 12.2016L268.51 12.198L268.522 12.1942L268.198 11.248ZM265.926 12.144L265 12.5226L265.404 13.5085L266.362 13.0438L265.926 12.144ZM265.062 10.032L264.585 9.15315L263.797 9.58087L264.136 10.4106L265.062 10.032ZM267.718 9.008L267.979 9.97323L267.989 9.9707L267.998 9.968L267.718 9.008ZM271.75 17.712L271.712 16.7127L271.71 16.7128L271.75 17.712ZM267.302 18.736L266.719 17.9236L266.709 17.9309L267.302 18.736ZM266.95 23.376L266.336 24.1654L266.343 24.1707L266.35 24.176L266.95 23.376ZM272.838 22.864L273.473 23.6365L273.483 23.628L272.838 22.864ZM274.278 17.616H275.278V16.5773L274.24 16.6167L274.278 17.616ZM270.918 9.56C272.889 9.56 274.142 9.99601 274.883 10.6738L276.233 9.19819C274.968 8.04132 273.129 7.56 270.918 7.56V9.56ZM274.883 10.6738C275.597 11.3267 276.062 12.4607 276.062 14.32H278.062C278.062 12.1687 277.525 10.3799 276.233 9.19819L274.883 10.6738ZM276.062 14.32V26H278.062V14.32H276.062ZM277.062 25H275.014V27H277.062V25ZM275.99 25.7817L275.446 23.3497L273.494 23.7863L274.038 26.2183L275.99 25.7817ZM274.47 22.568H274.342V24.568H274.47V22.568ZM273.559 22.9455C272.875 23.8056 272.185 24.3985 271.5 24.7675L272.448 26.5285C273.427 26.0015 274.315 25.2077 275.124 24.1905L273.559 22.9455ZM271.49 24.7728C270.889 25.1053 269.95 25.32 268.582 25.32V27.32C270.115 27.32 271.438 27.0867 272.458 26.5232L271.49 24.7728ZM268.582 25.32C267.205 25.32 266.146 24.9652 265.331 24.32L264.089 25.888C265.322 26.8641 266.844 27.32 268.582 27.32V25.32ZM265.34 24.3279C264.621 23.7434 264.174 22.7853 264.174 21.232H262.174C262.174 23.1773 262.751 24.8006 264.079 25.8801L265.34 24.3279ZM264.174 21.232C264.174 19.8366 264.698 18.8424 265.754 18.1219L264.626 16.47C262.994 17.5843 262.174 19.214 262.174 21.232H264.174ZM265.762 18.1158C266.87 17.3422 268.706 16.8427 271.428 16.7595L271.367 14.7605C268.5 14.848 266.198 15.3725 264.617 16.4762L265.762 18.1158ZM271.431 16.7595L274.343 16.6635L274.277 14.6645L271.365 14.7605L271.431 16.7595ZM275.31 15.664V14.64H273.31V15.664H275.31ZM275.31 14.64C275.31 13.1206 274.99 11.7631 274.049 10.9194L272.714 12.4086C273.011 12.6742 273.31 13.3008 273.31 14.64H275.31ZM274.049 10.9194C273.19 10.1489 272.045 9.832 270.758 9.832V11.832C271.732 11.832 272.336 12.0698 272.714 12.4086L274.049 10.9194ZM270.758 9.832C269.757 9.832 268.794 9.98725 267.874 10.3018L268.522 12.1942C269.223 11.9541 269.967 11.832 270.758 11.832V9.832ZM267.897 10.2944C267.044 10.5638 266.241 10.8799 265.49 11.2442L266.362 13.0438C267.019 12.7254 267.731 12.4442 268.499 12.2016L267.897 10.2944ZM266.851 11.7654L265.987 9.65337L264.136 10.4106L265 12.5226L266.851 11.7654ZM265.539 10.9109C266.203 10.5504 267.013 10.235 267.979 9.97323L267.456 8.04277C266.375 8.33563 265.414 8.70291 264.585 9.15315L265.539 10.9109ZM267.998 9.968C268.927 9.69691 269.899 9.56 270.918 9.56V7.56C269.718 7.56 268.556 7.72175 267.438 8.048L267.998 9.968ZM271.71 16.7128C269.553 16.7991 267.807 17.1421 266.719 17.9237L267.885 19.5483C268.46 19.1353 269.681 18.7956 271.79 18.7112L271.71 16.7128ZM266.709 17.9309C265.619 18.7337 265.086 19.888 265.086 21.264H267.086C267.086 20.464 267.363 19.9329 267.895 19.5411L266.709 17.9309ZM265.086 21.264C265.086 22.4272 265.444 23.4714 266.336 24.1654L267.564 22.5866C267.304 22.3846 267.086 22.0208 267.086 21.264H265.086ZM266.35 24.176C267.157 24.7812 268.139 25.048 269.222 25.048V23.048C268.47 23.048 267.938 22.8668 267.55 22.576L266.35 24.176ZM269.222 25.048C270.864 25.048 272.305 24.5968 273.473 23.6364L272.203 22.0916C271.451 22.7099 270.482 23.048 269.222 23.048V25.048ZM273.483 23.628C274.736 22.5703 275.278 21.0088 275.278 19.152H273.278C273.278 20.6232 272.86 21.5364 272.193 22.1L273.483 23.628ZM275.278 19.152V17.616H273.278V19.152H275.278ZM274.24 16.6167L271.712 16.7127L271.788 18.7113L274.316 18.6153L274.24 16.6167ZM308.066 23.088L308.746 23.8208L308.746 23.8205L308.066 23.088ZM292.93 26H291.93V27H292.93V26ZM292.93 3.152V2.152H291.93V3.152H292.93ZM309.858 8.208L308.982 8.69079L308.985 8.69557L309.858 8.208ZM305.922 7.76L305.23 8.48242L305.235 8.48746L305.241 8.49242L305.922 7.76ZM295.81 5.616V4.616H294.81V5.616H295.81ZM295.81 23.536H294.81V24.536H295.81V23.536ZM310.234 14.352C310.234 18.0338 309.231 20.6399 307.385 22.3555L308.746 23.8205C311.124 21.6107 312.234 18.3929 312.234 14.352H310.234ZM307.385 22.3552C305.532 24.0762 302.882 25 299.298 25V27C303.223 27 306.418 25.9825 308.746 23.8208L307.385 22.3552ZM299.298 25H292.93V27H299.298V25ZM293.93 26V3.152H291.93V26H293.93ZM292.93 4.152H299.97V2.152H292.93V4.152ZM299.97 4.152C302.151 4.152 303.984 4.55562 305.502 5.32416L306.405 3.53984C304.553 2.60171 302.397 2.152 299.97 2.152V4.152ZM305.502 5.32416C307.007 6.08616 308.161 7.20164 308.982 8.69078L310.733 7.72522C309.72 5.88636 308.271 4.4845 306.405 3.53984L305.502 5.32416ZM308.985 8.69557C309.797 10.1506 310.234 12.019 310.234 14.352H312.234C312.234 11.7784 311.753 9.55069 310.731 7.72043L308.985 8.69557ZM309.194 14.448C309.194 11.2523 308.401 8.69941 306.602 7.02757L305.241 8.49242C306.472 9.63659 307.194 11.5424 307.194 14.448H309.194ZM306.613 7.03758C304.879 5.37753 302.476 4.616 299.554 4.616V6.616C302.136 6.616 303.978 7.2838 305.23 8.48242L306.613 7.03758ZM299.554 4.616H295.81V6.616H299.554V4.616ZM294.81 5.616V23.536H296.81V5.616H294.81ZM295.81 24.536H298.914V22.536H295.81V24.536ZM298.914 24.536C302.156 24.536 304.772 23.7422 306.573 21.9785C308.378 20.2109 309.194 17.6368 309.194 14.448H307.194C307.194 17.3178 306.462 19.2877 305.174 20.5495C303.882 21.8151 301.858 22.536 298.914 22.536V24.536ZM319.121 2.864L318.438 3.59505L318.463 3.61847L318.49 3.64011L319.121 2.864ZM319.121 5.552L318.462 4.79942L318.45 4.80999L318.438 4.82094L319.121 5.552ZM316.817 5.552L317.499 4.82094L317.499 4.82094L316.817 5.552ZM316.817 2.864L317.472 3.61969L317.485 3.60762L317.499 3.59505L316.817 2.864ZM319.377 8.848H320.377V7.848H319.377V8.848ZM319.377 26V27H320.377V26H319.377ZM316.561 26H315.561V27H316.561V26ZM316.561 8.848V7.848H315.561V8.848H316.561ZM318.001 3.416C318.167 3.416 318.298 3.46425 318.438 3.59505L319.803 2.13294C319.303 1.66641 318.688 1.416 318.001 1.416V3.416ZM318.49 3.64011C318.514 3.6592 318.633 3.76208 318.633 4.208H320.633C320.633 3.41658 320.41 2.62347 319.751 2.08788L318.49 3.64011ZM318.633 4.208C318.633 4.6139 318.523 4.7463 318.462 4.79942L319.779 6.30457C320.401 5.76036 320.633 4.99677 320.633 4.208H318.633ZM318.438 4.82094C318.298 4.95175 318.167 5 318.001 5V7C318.688 7 319.303 6.74958 319.803 6.28305L318.438 4.82094ZM318.001 5C317.765 5 317.62 4.93359 317.499 4.82094L316.134 6.28305C316.654 6.76774 317.298 7 318.001 7V5ZM317.499 4.82094C317.447 4.77262 317.337 4.63284 317.337 4.208H315.337C315.337 4.97783 315.546 5.73405 316.134 6.28305L317.499 4.82094ZM317.337 4.208C317.337 3.74275 317.456 3.63291 317.472 3.61969L316.162 2.10831C315.537 2.64975 315.337 3.43591 315.337 4.208H317.337ZM317.499 3.59505C317.62 3.48241 317.765 3.416 318.001 3.416V1.416C317.298 1.416 316.654 1.64825 316.134 2.13294L317.499 3.59505ZM318.377 8.848V26H320.377V8.848H318.377ZM319.377 25H316.561V27H319.377V25ZM317.561 26V8.848H315.561V26H317.561ZM316.561 9.848H319.377V7.848H316.561V9.848ZM333.355 11.024V12.024H334.355V11.024H333.355ZM329.035 11.024V10.024H328.035V11.024H329.035ZM329.035 26V27H330.035V26H329.035ZM326.219 26H325.219V27H326.219V26ZM326.219 11.024H327.219V10.024H326.219V11.024ZM323.211 11.024H322.211V12.024H323.211V11.024ZM323.211 9.712L322.907 8.75934L322.211 8.98146V9.712H323.211ZM326.219 8.752L326.523 9.70466L327.219 9.48254V8.752H326.219ZM327.691 2.992L328.39 3.70688L328.398 3.69911L327.691 2.992ZM333.643 1.712L333.418 2.68639L333.439 2.6913L333.461 2.69528L333.643 1.712ZM335.115 2.096L336.063 2.41223L336.37 1.49273L335.46 1.15766L335.115 2.096ZM334.379 4.304L334.08 5.25848L335.017 5.55118L335.327 4.62023L334.379 4.304ZM329.707 4.784L328.9 4.19262L328.897 4.19749L329.707 4.784ZM329.035 8.848H328.035V9.848H329.035V8.848ZM333.355 8.848H334.355V7.848H333.355V8.848ZM344.363 11.024V12.024H345.363V11.024H344.363ZM340.043 11.024V10.024H339.043V11.024H340.043ZM340.043 26V27H341.043V26H340.043ZM337.227 26H336.227V27H337.227V26ZM337.227 11.024H338.227V10.024H337.227V11.024ZM334.219 11.024H333.219V12.024H334.219V11.024ZM334.219 9.712L333.915 8.75934L333.219 8.98146V9.712H334.219ZM337.227 8.752L337.531 9.70466L338.227 9.48254V8.752H337.227ZM338.699 2.992L339.398 3.70688L339.406 3.69911L338.699 2.992ZM344.651 1.712L344.426 2.68639L344.447 2.6913L344.469 2.69528L344.651 1.712ZM346.123 2.096L347.071 2.41223L347.378 1.49273L346.468 1.15766L346.123 2.096ZM345.387 4.304L345.088 5.25848L346.025 5.55118L346.335 4.62023L345.387 4.304ZM344.203 3.984L343.971 4.95681L343.971 4.95681L344.203 3.984ZM340.715 4.784L339.908 4.19262L339.905 4.19749L340.715 4.784ZM340.043 8.848H339.043V9.848H340.043V8.848ZM344.363 8.848H345.363V7.848H344.363V8.848ZM333.355 10.024H329.035V12.024H333.355V10.024ZM328.035 11.024V26H330.035V11.024H328.035ZM329.035 25H326.219V27H329.035V25ZM327.219 26V11.024H325.219V26H327.219ZM326.219 10.024H323.211V12.024H326.219V10.024ZM324.211 11.024V9.712H322.211V11.024H324.211ZM323.515 10.6647L326.523 9.70466L325.915 7.79934L322.907 8.75934L323.515 10.6647ZM327.219 8.752V7.76H325.219V8.752H327.219ZM327.219 7.76C327.219 5.65099 327.691 4.39069 328.39 3.70683L326.991 2.27716C325.728 3.51331 325.219 5.43167 325.219 7.76H327.219ZM328.398 3.69911C329.146 2.95116 330.23 2.52 331.787 2.52V0.519999C329.845 0.519999 328.198 1.07017 326.984 2.28489L328.398 3.69911ZM331.787 2.52C332.408 2.52 332.95 2.57838 333.418 2.68639L333.867 0.737607C333.226 0.589617 332.53 0.519999 331.787 0.519999V2.52ZM333.461 2.69528C333.999 2.795 334.432 2.9101 334.769 3.03434L335.46 1.15766C334.987 0.983232 334.438 0.842329 333.825 0.728716L333.461 2.69528ZM334.166 1.77977L333.43 3.98777L335.327 4.62023L336.063 2.41223L334.166 1.77977ZM334.677 3.34952C334.308 3.23435 333.891 3.12177 333.426 3.01119L332.963 4.95681C333.395 5.05956 333.766 5.16031 334.08 5.25848L334.677 3.34952ZM333.426 3.01119C332.901 2.88612 332.364 2.824 331.819 2.824V4.824C332.211 4.824 332.592 4.86855 332.963 4.95681L333.426 3.01119ZM331.819 2.824C330.627 2.824 329.594 3.24681 328.9 4.19263L330.513 5.37536C330.758 5.04119 331.132 4.824 331.819 4.824V2.824ZM328.897 4.19749C328.262 5.07376 328.035 6.31497 328.035 7.728H330.035C330.035 6.45302 330.255 5.73157 330.517 5.37051L328.897 4.19749ZM328.035 7.728V8.848H330.035V7.728H328.035ZM329.035 9.848H333.355V7.848H329.035V9.848ZM332.355 8.848V11.024H334.355V8.848H332.355ZM344.363 10.024H340.043V12.024H344.363V10.024ZM339.043 11.024V26H341.043V11.024H339.043ZM340.043 25H337.227V27H340.043V25ZM338.227 26V11.024H336.227V26H338.227ZM337.227 10.024H334.219V12.024H337.227V10.024ZM335.219 11.024V9.712H333.219V11.024H335.219ZM334.523 10.6647L337.531 9.70466L336.923 7.79934L333.915 8.75934L334.523 10.6647ZM338.227 8.752V7.76H336.227V8.752H338.227ZM338.227 7.76C338.227 5.65099 338.699 4.39069 339.398 3.70683L337.999 2.27716C336.736 3.51331 336.227 5.43167 336.227 7.76H338.227ZM339.406 3.69911C340.154 2.95116 341.238 2.52 342.795 2.52V0.519999C340.853 0.519999 339.206 1.07017 337.992 2.28489L339.406 3.69911ZM342.795 2.52C343.416 2.52 343.958 2.57838 344.426 2.68639L344.875 0.737607C344.234 0.589617 343.538 0.519999 342.795 0.519999V2.52ZM344.469 2.69528C345.007 2.795 345.44 2.9101 345.777 3.03434L346.468 1.15766C345.995 0.983232 345.446 0.842329 344.833 0.728716L344.469 2.69528ZM345.174 1.77977L344.438 3.98777L346.335 4.62023L347.071 2.41223L345.174 1.77977ZM345.685 3.34952C345.316 3.23435 344.899 3.12177 344.434 3.01119L343.971 4.95681C344.403 5.05956 344.774 5.16031 345.088 5.25848L345.685 3.34952ZM344.434 3.01119C343.909 2.88612 343.372 2.824 342.827 2.824V4.824C343.219 4.824 343.6 4.86855 343.971 4.95681L344.434 3.01119ZM342.827 2.824C341.635 2.824 340.602 3.24681 339.908 4.19263L341.521 5.37536C341.766 5.04119 342.14 4.824 342.827 4.824V2.824ZM339.905 4.19749C339.27 5.07376 339.043 6.31497 339.043 7.728H341.043C341.043 6.45302 341.263 5.73157 341.525 5.37051L339.905 4.19749ZM339.043 7.728V8.848H341.043V7.728H339.043ZM340.043 9.848H344.363V7.848H340.043V9.848ZM343.363 8.848V11.024H345.363V8.848H343.363ZM358.522 9.488L358 10.3409L358.007 10.3455L358.522 9.488ZM360.954 12.208L360.05 12.6354L360.054 12.6453L360.059 12.6552L360.954 12.208ZM361.818 17.968V18.968H362.818V17.968H361.818ZM350.074 17.968V16.968H349.052L349.074 17.99L350.074 17.968ZM351.546 22.416L350.809 23.0917L350.816 23.0997L350.824 23.1076L351.546 22.416ZM358.426 23.632L358.651 24.6064L358.66 24.6043L358.668 24.6021L358.426 23.632ZM361.05 22.736H362.05V21.2195L360.656 21.8169L361.05 22.736ZM361.05 25.2L361.452 26.1156L362.05 25.8531V25.2H361.05ZM358.458 26.032L358.262 25.0514L358.25 25.0538L358.238 25.0564L358.458 26.032ZM351.098 25.328L350.626 26.21L350.633 26.2132L351.098 25.328ZM348.186 22.384L347.297 22.8426L347.302 22.8513L347.306 22.8598L348.186 22.384ZM348.09 12.72L347.187 12.29L347.181 12.3019L348.09 12.72ZM350.746 9.616L350.213 8.76974L350.206 8.77431L350.746 9.616ZM351.514 12.144L350.771 11.474L350.771 11.475L351.514 12.144ZM350.138 15.728L349.143 15.6312L349.036 16.728H350.138V15.728ZM358.874 15.728V16.728H359.889L359.874 15.7133L358.874 15.728ZM357.85 12.208L357.039 12.7928L357.045 12.8019L357.85 12.208ZM354.746 9.528C356.071 9.528 357.141 9.81483 358 10.3409L359.044 8.63515C357.813 7.88117 356.365 7.528 354.746 7.528V9.528ZM358.007 10.3455C358.897 10.8792 359.576 11.6326 360.05 12.6354L361.858 11.7806C361.223 10.4367 360.28 9.37678 359.036 8.63051L358.007 10.3455ZM360.059 12.6552C360.553 13.6423 360.818 14.8379 360.818 16.272H362.818C362.818 14.5915 362.507 13.0777 361.848 11.7608L360.059 12.6552ZM360.818 16.272V17.968H362.818V16.272H360.818ZM361.818 16.968H350.074V18.968H361.818V16.968ZM349.074 17.99C349.12 20.0777 349.651 21.8288 350.809 23.0917L352.283 21.7403C351.563 20.9552 351.113 19.7409 351.074 17.946L349.074 17.99ZM350.824 23.1076C352.014 24.3509 353.633 24.92 355.546 24.92V22.92C354.045 22.92 352.998 22.4865 352.268 21.7244L350.824 23.1076ZM355.546 24.92C356.69 24.92 357.728 24.8193 358.651 24.6064L358.201 22.6576C357.46 22.8287 356.578 22.92 355.546 22.92V24.92ZM358.668 24.6021C359.579 24.3746 360.504 24.0579 361.444 23.6551L360.656 21.8169C359.804 22.1821 358.98 22.4628 358.183 22.6619L358.668 24.6021ZM360.05 22.736V25.2H362.05V22.736H360.05ZM360.648 24.2844C359.833 24.6421 359.038 24.8962 358.262 25.0514L358.654 27.0126C359.585 26.8265 360.517 26.5259 361.452 26.1156L360.648 24.2844ZM358.238 25.0564C357.477 25.2278 356.541 25.32 355.418 25.32V27.32C356.642 27.32 357.732 27.2202 358.677 27.0076L358.238 25.0564ZM355.418 25.32C353.936 25.32 352.659 25.0187 351.563 24.4428L350.633 26.2132C352.054 26.9599 353.657 27.32 355.418 27.32V25.32ZM351.569 24.4461C350.515 23.8823 349.681 23.047 349.065 21.9082L347.306 22.8598C348.098 24.3237 349.207 25.451 350.626 26.2099L351.569 24.4461ZM349.074 21.9254C348.482 20.7782 348.162 19.3339 348.162 17.552H346.162C346.162 19.5675 346.524 21.3445 347.297 22.8426L349.074 21.9254ZM348.162 17.552C348.162 15.7815 348.454 14.3207 348.998 13.1381L347.181 12.3019C346.489 13.8073 346.162 15.5678 346.162 17.552H348.162ZM348.993 13.1499C349.561 11.9556 350.329 11.0716 351.286 10.4577L350.206 8.77431C348.902 9.61104 347.898 10.7964 347.187 12.2901L348.993 13.1499ZM351.279 10.4622C352.254 9.84843 353.398 9.528 354.746 9.528V7.528C353.065 7.528 351.542 7.9329 350.213 8.76977L351.279 10.4622ZM354.714 9.832C353.131 9.832 351.778 10.3586 350.771 11.474L352.256 12.814C352.828 12.18 353.609 11.832 354.714 11.832V9.832ZM350.771 11.475C349.818 12.5339 349.306 13.9549 349.143 15.6312L351.133 15.8248C351.269 14.4291 351.674 13.4607 352.257 12.813L350.771 11.475ZM350.138 16.728H358.874V14.728H350.138V16.728ZM359.874 15.7133C359.85 14.1168 359.472 12.7225 358.654 11.6141L357.045 12.8019C357.55 13.4855 357.855 14.4378 357.874 15.7427L359.874 15.7133ZM358.661 11.6232C357.763 10.377 356.37 9.832 354.714 9.832V11.832C355.916 11.832 356.614 12.2043 357.039 12.7928L358.661 11.6232ZM375.848 8.592L375.732 9.58515L375.762 9.58875L375.793 9.59046L375.848 8.592ZM376.84 8.72L377.831 8.85457L377.954 7.95071L377.065 7.74561L376.84 8.72ZM376.488 11.312L376.264 12.2864L377.332 12.5329L377.479 11.4466L376.488 11.312ZM375.56 11.152L375.428 12.1433L375.436 12.1443L375.56 11.152ZM372.168 11.824L372.69 12.6773L372.698 12.6721L372.707 12.6667L372.168 11.824ZM370.312 13.84L369.431 13.3672L369.427 13.3752L370.312 13.84ZM369.64 26V27H370.64V26H369.64ZM366.824 26H365.824V27H366.824V26ZM366.824 8.848V7.848H365.824V8.848H366.824ZM369.128 8.848L370.123 8.74649L370.032 7.848H369.128V8.848ZM369.448 11.984L368.454 12.0855L368.545 12.984H369.448V11.984ZM369.576 11.984V12.984H370.147L370.437 12.4927L369.576 11.984ZM371.72 9.552L372.336 10.3403L372.336 10.3403L371.72 9.552ZM374.824 9.528C375.1 9.528 375.402 9.54642 375.732 9.58515L375.965 7.59885C375.569 7.55224 375.188 7.528 374.824 7.528V9.528ZM375.793 9.59046C376.138 9.60965 376.409 9.64681 376.616 9.69439L377.065 7.74561C376.717 7.66519 376.326 7.61702 375.904 7.59354L375.793 9.59046ZM375.849 8.58543L375.497 11.1774L377.479 11.4466L377.831 8.85457L375.849 8.58543ZM376.713 10.3376C376.397 10.2645 376.053 10.2058 375.684 10.1597L375.436 12.1443C375.75 12.1835 376.025 12.2315 376.264 12.2864L376.713 10.3376ZM375.693 10.1608C375.332 10.1127 374.979 10.088 374.632 10.088V12.088C374.883 12.088 375.149 12.1059 375.428 12.1432L375.693 10.1608ZM374.632 10.088C373.559 10.088 372.552 10.3924 371.63 10.9813L372.707 12.6667C373.321 12.2742 373.957 12.088 374.632 12.088V10.088ZM371.647 10.9707C370.712 11.542 369.976 12.3525 369.431 13.3672L371.194 14.3128C371.588 13.5781 372.089 13.0447 372.69 12.6773L371.647 10.9707ZM369.427 13.3752C368.89 14.3974 368.64 15.5655 368.64 16.848H370.64C370.64 15.8265 370.838 14.9893 371.198 14.3048L369.427 13.3752ZM368.64 16.848V26H370.64V16.848H368.64ZM369.64 25H366.824V27H369.64V25ZM367.824 26V8.848H365.824V26H367.824ZM366.824 9.848H369.128V7.848H366.824V9.848ZM368.134 8.94951L368.454 12.0855L370.443 11.8825L370.123 8.74649L368.134 8.94951ZM369.448 12.984H369.576V10.984H369.448V12.984ZM370.437 12.4927C370.927 11.6637 371.558 10.9474 372.336 10.3403L371.105 8.76368C370.134 9.52196 369.335 10.4269 368.715 11.4753L370.437 12.4927ZM372.336 10.3403C373.021 9.80565 373.834 9.528 374.824 9.528V7.528C373.425 7.528 372.169 7.93302 371.105 8.76368L372.336 10.3403ZM390.458 9.488L389.936 10.3409L389.944 10.3455L390.458 9.488ZM392.89 12.208L391.986 12.6354L391.991 12.6453L391.996 12.6552L392.89 12.208ZM393.754 17.968V18.968H394.754V17.968H393.754ZM382.01 17.968V16.968H380.988L381.01 17.99L382.01 17.968ZM383.482 22.416L382.745 23.0917L382.752 23.0997L382.76 23.1076L383.482 22.416ZM390.362 23.632L390.587 24.6064L390.596 24.6043L390.605 24.6021L390.362 23.632ZM392.986 22.736H393.986V21.2195L392.592 21.8169L392.986 22.736ZM392.986 25.2L393.388 26.1156L393.986 25.8531V25.2H392.986ZM390.394 26.032L390.198 25.0514L390.186 25.0538L390.175 25.0564L390.394 26.032ZM383.034 25.328L382.563 26.21L382.569 26.2132L383.034 25.328ZM380.122 22.384L379.233 22.8426L379.238 22.8513L379.243 22.8598L380.122 22.384ZM380.026 12.72L379.123 12.29L379.118 12.3019L380.026 12.72ZM382.682 9.616L382.149 8.76974L382.142 8.77431L382.682 9.616ZM383.45 12.144L382.708 11.474L382.707 11.475L383.45 12.144ZM382.074 15.728L381.079 15.6312L380.972 16.728H382.074V15.728ZM390.81 15.728V16.728H391.825L391.81 15.7133L390.81 15.728ZM389.786 12.208L388.975 12.7928L388.982 12.8019L389.786 12.208ZM386.682 9.528C388.007 9.528 389.077 9.81483 389.936 10.3409L390.98 8.63515C389.749 7.88117 388.301 7.528 386.682 7.528V9.528ZM389.944 10.3455C390.833 10.8792 391.512 11.6326 391.986 12.6354L393.794 11.7806C393.159 10.4367 392.216 9.37678 390.973 8.63051L389.944 10.3455ZM391.996 12.6552C392.489 13.6423 392.754 14.8379 392.754 16.272H394.754C394.754 14.5915 394.443 13.0777 393.785 11.7608L391.996 12.6552ZM392.754 16.272V17.968H394.754V16.272H392.754ZM393.754 16.968H382.01V18.968H393.754V16.968ZM381.01 17.99C381.056 20.0777 381.587 21.8288 382.745 23.0917L384.219 21.7403C383.5 20.9552 383.049 19.7409 383.01 17.946L381.01 17.99ZM382.76 23.1076C383.95 24.3509 385.57 24.92 387.482 24.92V22.92C385.981 22.92 384.934 22.4865 384.204 21.7244L382.76 23.1076ZM387.482 24.92C388.626 24.92 389.664 24.8193 390.587 24.6064L390.137 22.6576C389.396 22.8287 388.514 22.92 387.482 22.92V24.92ZM390.605 24.6021C391.515 24.3746 392.44 24.0579 393.38 23.6551L392.592 21.8169C391.74 22.1821 390.916 22.4628 390.12 22.6619L390.605 24.6021ZM391.986 22.736V25.2H393.986V22.736H391.986ZM392.584 24.2844C391.769 24.6421 390.974 24.8962 390.198 25.0514L390.59 27.0126C391.521 26.8265 392.454 26.5259 393.388 26.1156L392.584 24.2844ZM390.175 25.0564C389.413 25.2278 388.477 25.32 387.354 25.32V27.32C388.578 27.32 389.669 27.2202 390.614 27.0076L390.175 25.0564ZM387.354 25.32C385.872 25.32 384.595 25.0187 383.499 24.4428L382.569 26.2132C383.99 26.9599 385.594 27.32 387.354 27.32V25.32ZM383.505 24.4461C382.451 23.8823 381.618 23.047 381.002 21.9082L379.243 22.8598C380.034 24.3237 381.143 25.451 382.563 26.2099L383.505 24.4461ZM381.011 21.9254C380.419 20.7782 380.098 19.3339 380.098 17.552H378.098C378.098 19.5675 378.46 21.3445 379.233 22.8426L381.011 21.9254ZM380.098 17.552C380.098 15.7815 380.39 14.3207 380.934 13.1381L379.118 12.3019C378.425 13.8073 378.098 15.5678 378.098 17.552H380.098ZM380.929 13.1499C381.498 11.9556 382.265 11.0716 383.222 10.4577L382.142 8.77431C380.838 9.61104 379.834 10.7964 379.123 12.2901L380.929 13.1499ZM383.215 10.4622C384.19 9.84843 385.334 9.528 386.682 9.528V7.528C385.001 7.528 383.478 7.9329 382.149 8.76977L383.215 10.4622ZM386.65 9.832C385.067 9.832 383.714 10.3586 382.708 11.474L384.192 12.814C384.765 12.18 385.545 11.832 386.65 11.832V9.832ZM382.707 11.475C381.754 12.5339 381.242 13.9549 381.079 15.6312L383.069 15.8248C383.205 14.4291 383.61 13.4607 384.193 12.813L382.707 11.475ZM382.074 16.728H390.81V14.728H382.074V16.728ZM391.81 15.7133C391.787 14.1168 391.409 12.7225 390.591 11.6141L388.982 12.8019C389.486 13.4855 389.791 14.4378 389.81 15.7427L391.81 15.7133ZM390.597 11.6232C389.699 10.377 388.306 9.832 386.65 9.832V11.832C387.852 11.832 388.551 12.2043 388.975 12.7928L390.597 11.6232ZM411.657 10.032L410.964 10.7537L410.972 10.7611L411.657 10.032ZM413.225 26V27H414.225V26H413.225ZM410.441 26H409.441V27H410.441V26ZM402.665 12.496L403.492 13.0583L403.492 13.0583L402.665 12.496ZM401.577 26V27H402.577V26H401.577ZM398.761 26H397.761V27H398.761V26ZM398.761 8.848V7.848H397.761V8.848H398.761ZM401.033 8.848L402.017 8.67268L401.87 7.848H401.033V8.848ZM401.449 11.184L400.464 11.3593L400.611 12.184H401.449V11.184ZM401.609 11.184V12.184H402.166L402.459 11.7104L401.609 11.184ZM403.913 9.2L404.311 10.1171L404.32 10.1135L404.328 10.1097L403.913 9.2ZM407.017 9.528C408.914 9.528 410.17 9.99217 410.964 10.7537L412.349 9.31032C411.052 8.06649 409.215 7.528 407.017 7.528V9.528ZM410.972 10.7611C411.729 11.4712 412.225 12.7405 412.225 14.832H414.225C414.225 12.4861 413.675 10.5555 412.341 9.30293L410.972 10.7611ZM412.225 14.832V26H414.225V14.832H412.225ZM413.225 25H410.441V27H413.225V25ZM411.441 26V15.024H409.441V26H411.441ZM411.441 15.024C411.441 13.5111 411.09 12.1902 410.213 11.2469C409.323 10.29 408.054 9.896 406.601 9.896V11.896C407.707 11.896 408.359 12.19 408.748 12.6091C409.151 13.0418 409.441 13.7849 409.441 15.024H411.441ZM406.601 9.896C404.537 9.896 402.826 10.4797 401.838 11.9337L403.492 13.0583C403.954 12.3789 404.867 11.896 406.601 11.896V9.896ZM401.838 11.9337C400.953 13.2348 400.577 15.0012 400.577 17.104H402.577C402.577 15.1961 402.926 13.8906 403.492 13.0583L401.838 11.9337ZM400.577 17.104V26H402.577V17.104H400.577ZM401.577 25H398.761V27H401.577V25ZM399.761 26V8.848H397.761V26H399.761ZM398.761 9.848H401.033V7.848H398.761V9.848ZM400.048 9.02332L400.464 11.3593L402.433 11.0087L402.017 8.67268L400.048 9.02332ZM401.449 12.184H401.609V10.184H401.449V12.184ZM402.459 11.7104C402.905 10.9904 403.514 10.4639 404.311 10.1171L403.514 8.28293C402.349 8.78947 401.422 9.58562 400.758 10.6576L402.459 11.7104ZM404.328 10.1097C405.178 9.72172 406.071 9.528 407.017 9.528V7.528C405.787 7.528 404.61 7.78227 403.497 8.29031L404.328 10.1097ZM421.998 25.392L421.531 26.2766L421.538 26.28L421.998 25.392ZM419.214 22.512L418.322 22.9651L418.328 22.9765L419.214 22.512ZM419.278 12.368L420.161 12.8378L420.161 12.8378L419.278 12.368ZM422.126 9.456L421.672 8.5647L421.666 8.568L422.126 9.456ZM428.782 8.816L428.551 9.78908L428.564 9.79197L428.576 9.79455L428.782 8.816ZM430.766 9.456L431.704 9.8029L432.015 8.96236L431.213 8.56157L430.766 9.456ZM429.902 11.792L429.551 12.7283L430.491 13.081L430.84 12.1389L429.902 11.792ZM428.11 11.248L428.352 10.2779L428.352 10.2779L428.11 11.248ZM422.35 22.256L421.542 22.846L421.549 22.8548L421.555 22.8634L422.35 22.256ZM428.494 23.6L428.238 22.6333L428.231 22.6352L428.494 23.6ZM430.478 22.896H431.478V21.3292L430.057 21.989L430.478 22.896ZM430.478 25.392L430.938 26.2798L431.478 25.9999V25.392H430.478ZM428.558 26.064L428.35 25.0858L428.333 25.0895L428.315 25.0939L428.558 26.064ZM426.062 25.32C424.687 25.32 423.493 25.0402 422.458 24.504L421.538 26.28C422.892 26.9811 424.408 27.32 426.062 27.32V25.32ZM422.464 24.5074C421.489 23.9932 420.699 23.1898 420.099 22.0475L418.328 22.9765C419.094 24.4369 420.16 25.5534 421.531 26.2766L422.464 24.5074ZM420.105 22.0589C419.538 20.9417 419.222 19.4469 419.222 17.52H417.222C417.222 19.6464 417.567 21.4796 418.322 22.965L420.105 22.0589ZM419.222 17.52C419.222 15.5087 419.559 13.9688 420.161 12.8378L418.395 11.8981C417.589 13.4125 417.222 15.3073 417.222 17.52H419.222ZM420.161 12.8378C420.781 11.673 421.591 10.8589 422.586 10.344L421.666 8.568C420.271 9.29041 419.183 10.4176 418.395 11.8982L420.161 12.8378ZM422.579 10.3473C423.638 9.80864 424.855 9.528 426.254 9.528V7.528C424.58 7.528 423.046 7.86603 421.672 8.56472L422.579 10.3473ZM426.254 9.528C427.055 9.528 427.82 9.61583 428.551 9.78908L429.012 7.84292C428.122 7.63216 427.202 7.528 426.254 7.528V9.528ZM428.576 9.79455C429.337 9.95471 429.909 10.1455 430.319 10.3504L431.213 8.56157C430.599 8.25448 429.848 8.01862 428.988 7.83745L428.576 9.79455ZM429.828 9.1091L428.964 11.4451L430.84 12.1389L431.704 9.8029L429.828 9.1091ZM430.253 10.8557C429.697 10.6472 429.062 10.4553 428.352 10.2779L427.867 12.2181C428.523 12.3821 429.083 12.5528 429.551 12.7283L430.253 10.8557ZM428.352 10.2779C427.604 10.0908 426.882 9.992 426.19 9.992V11.992C426.692 11.992 427.25 12.0639 427.867 12.2181L428.352 10.2779ZM426.19 9.992C424.274 9.992 422.684 10.6201 421.609 12.0018C420.57 13.3359 420.134 15.2205 420.134 17.488H422.134C422.134 15.4248 422.54 14.0615 423.187 13.2302C423.797 12.4466 424.735 11.992 426.19 11.992V9.992ZM420.134 17.488C420.134 19.6679 420.558 21.4984 421.542 22.846L423.157 21.666C422.521 20.7949 422.134 19.4468 422.134 17.488H420.134ZM421.555 22.8634C422.613 24.2459 424.161 24.888 426.03 24.888V22.888C424.656 22.888 423.751 22.4421 423.144 21.6485L421.555 22.8634ZM426.03 24.888C427.033 24.888 427.947 24.7857 428.757 24.5648L428.231 22.6352C427.633 22.7983 426.904 22.888 426.03 22.888V24.888ZM428.75 24.5667C429.524 24.3617 430.242 24.1082 430.899 23.803L430.057 21.989C429.519 22.2385 428.914 22.4543 428.238 22.6333L428.75 24.5667ZM429.478 22.896V25.392H431.478V22.896H429.478ZM430.018 24.5042C429.53 24.7573 428.976 24.9531 428.35 25.0858L428.765 27.0422C429.548 26.8763 430.274 26.624 430.938 26.2798L430.018 24.5042ZM428.315 25.0939C427.736 25.2386 426.991 25.32 426.062 25.32V27.32C427.095 27.32 428.014 27.2307 428.8 27.0341L428.315 25.0939ZM445.597 9.488L445.075 10.3409L445.082 10.3455L445.597 9.488ZM448.029 12.208L447.125 12.6354L447.13 12.6453L447.134 12.6552L448.029 12.208ZM448.893 17.968V18.968H449.893V17.968H448.893ZM437.149 17.968V16.968H436.127L436.149 17.99L437.149 17.968ZM438.621 22.416L437.884 23.0917L437.891 23.0997L437.899 23.1076L438.621 22.416ZM445.501 23.632L445.726 24.6064L445.735 24.6043L445.743 24.6021L445.501 23.632ZM448.125 22.736H449.125V21.2195L447.731 21.8169L448.125 22.736ZM448.125 25.2L448.527 26.1156L449.125 25.8531V25.2H448.125ZM445.533 26.032L445.337 25.0514L445.325 25.0538L445.313 25.0564L445.533 26.032ZM438.173 25.328L437.701 26.21L437.708 26.2132L438.173 25.328ZM435.261 22.384L434.372 22.8426L434.377 22.8513L434.381 22.8598L435.261 22.384ZM435.165 12.72L434.262 12.29L434.256 12.3019L435.165 12.72ZM437.821 9.616L437.288 8.76974L437.281 8.77431L437.821 9.616ZM438.589 12.144L437.846 11.474L437.846 11.475L438.589 12.144ZM437.213 15.728L436.218 15.6312L436.111 16.728H437.213V15.728ZM445.949 15.728V16.728H446.964L446.949 15.7133L445.949 15.728ZM444.925 12.208L444.114 12.7928L444.12 12.8019L444.925 12.208ZM441.821 9.528C443.146 9.528 444.216 9.81483 445.075 10.3409L446.119 8.63515C444.888 7.88117 443.44 7.528 441.821 7.528V9.528ZM445.082 10.3455C445.972 10.8792 446.651 11.6326 447.125 12.6354L448.933 11.7806C448.298 10.4367 447.355 9.37678 446.111 8.63051L445.082 10.3455ZM447.134 12.6552C447.628 13.6423 447.893 14.8379 447.893 16.272H449.893C449.893 14.5915 449.582 13.0777 448.923 11.7608L447.134 12.6552ZM447.893 16.272V17.968H449.893V16.272H447.893ZM448.893 16.968H437.149V18.968H448.893V16.968ZM436.149 17.99C436.195 20.0777 436.726 21.8288 437.884 23.0917L439.358 21.7403C438.638 20.9552 438.188 19.7409 438.149 17.946L436.149 17.99ZM437.899 23.1076C439.089 24.3509 440.708 24.92 442.621 24.92V22.92C441.12 22.92 440.073 22.4865 439.343 21.7244L437.899 23.1076ZM442.621 24.92C443.765 24.92 444.803 24.8193 445.726 24.6064L445.276 22.6576C444.535 22.8287 443.653 22.92 442.621 22.92V24.92ZM445.743 24.6021C446.654 24.3746 447.579 24.0579 448.519 23.6551L447.731 21.8169C446.879 22.1821 446.055 22.4628 445.258 22.6619L445.743 24.6021ZM447.125 22.736V25.2H449.125V22.736H447.125ZM447.723 24.2844C446.908 24.6421 446.113 24.8962 445.337 25.0514L445.729 27.0126C446.66 26.8265 447.592 26.5259 448.527 26.1156L447.723 24.2844ZM445.313 25.0564C444.552 25.2278 443.616 25.32 442.493 25.32V27.32C443.717 27.32 444.807 27.2202 445.752 27.0076L445.313 25.0564ZM442.493 25.32C441.011 25.32 439.734 25.0187 438.638 24.4428L437.708 26.2132C439.129 26.9599 440.732 27.32 442.493 27.32V25.32ZM438.644 24.4461C437.59 23.8823 436.756 23.047 436.14 21.9082L434.381 22.8598C435.173 24.3237 436.282 25.451 437.701 26.2099L438.644 24.4461ZM436.149 21.9254C435.557 20.7782 435.237 19.3339 435.237 17.552H433.237C433.237 19.5675 433.599 21.3445 434.372 22.8426L436.149 21.9254ZM435.237 17.552C435.237 15.7815 435.529 14.3207 436.073 13.1381L434.256 12.3019C433.564 13.8073 433.237 15.5678 433.237 17.552H435.237ZM436.068 13.1499C436.636 11.9556 437.404 11.0716 438.361 10.4577L437.281 8.77431C435.977 9.61104 434.973 10.7964 434.262 12.2901L436.068 13.1499ZM438.354 10.4622C439.329 9.84843 440.473 9.528 441.821 9.528V7.528C440.14 7.528 438.617 7.9329 437.288 8.76977L438.354 10.4622ZM441.789 9.832C440.206 9.832 438.853 10.3586 437.846 11.474L439.331 12.814C439.903 12.18 440.684 11.832 441.789 11.832V9.832ZM437.846 11.475C436.893 12.5339 436.381 13.9549 436.218 15.6312L438.208 15.8248C438.344 14.4291 438.749 13.4607 439.332 12.813L437.846 11.475ZM437.213 16.728H445.949V14.728H437.213V16.728ZM446.949 15.7133C446.925 14.1168 446.547 12.7225 445.729 11.6141L444.12 12.8019C444.625 13.4855 444.93 14.4378 444.949 15.7427L446.949 15.7133ZM445.736 11.6232C444.838 10.377 443.445 9.832 441.789 9.832V11.832C442.991 11.832 443.689 12.2043 444.114 12.7928L445.736 11.6232ZM457.289 22.6719H458.289V21.6719H457.289V22.6719ZM457.289 26V27H458.289V26H457.289ZM453.961 26H452.961V27H453.961V26ZM453.961 22.6719V21.6719H452.961V22.6719H453.961ZM456.289 22.6719V26H458.289V22.6719H456.289ZM457.289 25H453.961V27H457.289V25ZM454.961 26V22.6719H452.961V26H454.961ZM453.961 23.6719H457.289V21.6719H453.961V23.6719Z" fill="black"/>
</svg>
